<svg version="1.1" id="Layer_1" xmlns="http://www.w3.org/2000/svg" xmlns:xlink="http://www.w3.org/1999/xlink" x="0px" y="0px"
	 width="100%" viewBox="0 0 300 160" enable-background="new 0 0 300 160" xml:space="preserve">
<path fill="#000000" opacity="1.000000" stroke="none" 
	d="
M220.000000,161.000000 
	C146.666672,161.000000 73.833351,161.000000 1.000020,161.000000 
	C1.000013,107.666679 1.000013,54.333363 1.000007,1.000034 
	C100.999969,1.000023 200.999939,1.000023 300.999939,1.000011 
	C300.999939,54.333298 300.999939,107.666595 300.999969,160.999939 
	C274.166656,161.000000 247.333328,161.000000 220.000000,161.000000 
M210.244324,139.643829 
	C211.473099,140.452667 212.701859,141.261490 214.273575,142.694168 
	C219.284683,146.415985 224.494736,147.788925 230.552582,143.864609 
	C230.812195,143.684494 230.973343,143.439575 231.644241,142.784302 
	C235.054047,137.630249 234.007751,135.553452 228.075867,134.957016 
	C221.642181,134.310120 217.167770,130.460983 213.321945,125.348480 
	C216.516785,123.776253 219.401474,122.356651 222.108734,121.024368 
	C223.226044,123.023727 224.092148,124.573532 225.128555,126.547829 
	C225.310364,126.814354 225.559448,126.979286 226.192047,127.613411 
	C227.124039,128.024963 228.056015,128.436523 229.673325,128.953979 
	C230.133133,128.920883 230.592957,128.887802 231.803238,128.959717 
	C234.520477,128.667145 237.237701,128.374588 239.995255,128.022354 
	C239.995255,128.022354 239.923569,128.029099 240.117188,128.474548 
	C240.314438,128.784698 240.594421,128.910263 241.715317,128.963867 
	C242.478806,128.927261 243.242310,128.890640 244.641541,128.930969 
	C245.440567,128.320435 246.239594,127.709908 247.463974,127.044266 
	C247.463974,127.044266 247.892776,127.034592 248.199768,127.615387 
	C249.134140,128.021515 250.068512,128.427658 251.662399,128.937454 
	C252.104782,128.903076 252.547150,128.868698 253.726425,128.911560 
	C256.133820,128.891113 258.541199,128.870682 261.631775,128.953827 
	C262.089630,128.918060 262.547455,128.882294 263.726318,128.678436 
	C268.509674,128.778427 273.301300,128.737228 278.074127,129.017151 
	C283.102936,129.312088 287.099335,126.254387 287.285278,121.394585 
	C287.285278,121.394585 287.439209,121.200500 288.094269,121.612976 
	C292.556610,115.551743 292.404022,113.981934 286.890869,108.079597 
	C286.890869,108.079597 286.858917,108.186661 286.890533,107.383362 
	C281.067841,102.690880 275.209778,104.917526 269.395660,107.255974 
	C264.999390,101.034744 258.877563,105.405434 253.632568,104.882812 
	C248.726944,104.394005 243.692886,105.193962 238.115311,105.726105 
	C237.903793,106.112968 237.692261,106.499832 237.164932,107.022217 
	C236.937180,107.105064 236.712784,107.096809 236.461868,106.229576 
	C235.623993,105.866943 234.786102,105.504311 233.458328,105.190346 
	C233.164764,105.373131 232.970337,105.630753 232.416931,106.030380 
	C232.416931,106.030380 231.973770,106.164543 231.343735,105.627541 
	C231.220856,103.851250 231.419525,101.974953 230.904968,100.320480 
	C229.971939,97.320435 230.133148,93.329659 225.321625,92.842316 
	C225.321625,92.842316 225.066650,92.469170 225.388779,91.726639 
	C225.262939,91.204063 225.137085,90.681480 225.813751,90.023010 
	C226.876984,88.919479 228.772110,87.882156 228.866074,86.701485 
	C229.405045,79.929054 225.329834,74.610023 218.823715,73.033768 
	C217.106995,72.617851 215.354553,72.351784 213.625504,71.984047 
	C206.661942,70.502998 198.971970,70.873650 194.103897,64.068817 
	C193.567612,63.319164 192.071198,63.256397 190.987839,62.938225 
	C190.987839,62.938225 191.057144,62.952602 190.795303,62.320240 
	C190.125366,62.245884 189.455429,62.171528 188.113922,61.936172 
	C186.225311,60.687786 184.411346,59.303917 182.434952,58.214828 
	C174.512161,53.848957 165.830597,53.862766 157.010208,53.186806 
	C157.825760,50.997726 158.641312,48.808647 159.670395,46.046406 
	C158.579880,45.643490 157.017502,45.066235 156.041489,44.705624 
	C156.637329,43.871056 157.676041,42.985703 157.960754,41.902222 
	C158.611694,39.425068 158.062042,36.139565 159.496521,34.462261 
	C162.624344,30.805000 160.828400,30.158966 157.456314,29.590322 
	C158.298157,29.167051 159.537933,28.957539 159.771469,28.356831 
	C160.980331,25.247423 162.104675,22.077366 162.843750,18.833946 
	C163.014374,18.085236 161.743652,16.630617 160.800186,16.111238 
	C159.848892,15.587554 158.479660,15.823098 157.261475,15.723373 
	C157.875290,13.229048 157.733826,10.451799 159.050232,9.158793 
	C161.714920,6.541467 159.237473,5.832004 157.904465,5.503323 
	C153.448532,4.404606 148.887421,3.732471 144.316132,2.887617 
	C144.316132,6.611077 144.316132,9.774688 144.316132,11.465830 
	C141.806656,12.646768 138.318771,13.487978 138.286957,14.444188 
	C138.161636,18.210287 139.122742,22.012537 139.672684,25.747402 
	C136.893433,26.353384 134.359085,26.674028 137.371994,30.066238 
	C138.042831,30.821527 137.401566,32.727825 137.392838,34.104362 
	C137.379013,36.284924 137.389145,38.465641 137.389145,40.646290 
	C136.104965,41.417862 135.195160,42.543022 135.077728,43.745567 
	C134.587952,48.760536 134.336472,53.798775 133.497986,58.958603 
	C133.328674,58.927757 133.159363,58.896912 132.999313,58.035629 
	C132.666260,55.805515 132.210632,53.585720 132.021805,51.343460 
	C131.276733,42.495564 130.788834,40.493076 123.988297,39.749130 
	C113.980385,38.654320 103.786598,39.151497 93.675880,39.279087 
	C92.726585,39.291061 91.805099,41.506390 90.870697,42.698723 
	C91.195465,43.174908 91.520233,43.651093 91.845001,44.127277 
	C88.796036,44.417919 85.746017,44.698090 82.698868,45.006638 
	C81.947906,45.082680 81.200005,45.222424 80.461937,45.384144 
	C79.502701,45.594322 77.949234,46.333496 77.699974,46.017632 
	C76.067329,43.948700 73.069931,41.158558 73.563774,39.524200 
	C75.590446,32.816952 69.011444,29.999962 67.715088,24.874392 
	C67.293388,23.207085 62.964764,20.760418 61.799088,21.357330 
	C56.970535,23.829903 52.372143,26.990948 48.270813,30.566305 
	C45.192070,33.250214 46.207649,36.644089 47.336155,40.653549 
	C48.892586,46.183357 48.038555,52.385334 48.305756,58.295380 
	C48.328857,58.806385 49.258076,59.246651 49.348728,59.789520 
	C49.743382,62.152901 50.049301,64.536545 50.250832,66.924347 
	C50.346035,68.052345 49.618404,69.789513 50.144127,70.253960 
	C53.584194,73.293030 52.132587,76.550652 50.241325,79.989868 
	C49.074604,81.243561 47.264107,82.319649 46.860191,83.783775 
	C45.576958,88.435272 44.818027,93.231407 43.152962,98.058670 
	C41.224346,99.004753 39.208195,99.807236 37.381573,100.920654 
	C26.912191,107.302277 23.340088,120.383629 32.799736,130.294830 
	C34.082897,131.639236 35.361862,132.987671 37.042152,134.754074 
	C28.947620,135.234985 26.844809,136.237488 26.133949,140.066833 
	C25.306602,144.523697 27.148314,148.013031 31.107002,149.976639 
	C39.935150,154.355652 53.511280,151.526337 57.435356,143.255051 
	C57.967972,142.132385 59.528763,141.497528 60.613483,140.636795 
	C57.603245,149.956055 61.641422,155.230774 70.978500,153.953430 
	C77.173920,153.105881 79.412918,147.735641 81.641243,143.130386 
	C82.991684,140.339447 84.467484,139.911026 86.920158,139.994568 
	C90.805023,140.126923 94.708191,140.034760 98.570618,140.393219 
	C100.820778,140.602066 103.281227,141.047363 105.167648,142.182785 
	C109.960190,145.067368 114.356270,144.011002 119.328247,142.511032 
	C125.210342,140.736496 131.328903,138.888870 137.720779,140.738861 
	C139.269165,141.186996 141.023361,140.975555 142.683090,140.979019 
	C151.506485,140.997406 160.329926,140.987671 168.027557,140.987671 
	C168.027557,144.303665 166.991959,147.855713 168.309738,149.862106 
	C169.715149,152.001923 173.237625,153.449463 176.025604,153.838058 
	C181.875488,154.653442 185.301865,150.431915 187.421585,145.885742 
	C190.713089,138.826431 193.224045,131.403168 195.924164,124.496727 
	C195.953674,124.683182 196.057297,125.337891 196.033524,126.637810 
	C195.988785,127.073868 195.944031,127.509918 195.277023,128.504669 
	C195.644119,132.719116 193.012054,137.333466 196.998749,141.007492 
	C196.998749,141.007492 196.930557,141.047028 197.330750,141.642441 
	C199.336517,142.247940 201.478516,144.938843 203.223557,141.203156 
	C203.223557,141.203156 203.280807,141.216690 203.982010,141.125244 
	C204.964996,139.106232 205.947968,137.087234 207.013580,135.721130 
	C207.990997,136.835434 208.968414,137.949753 210.244324,139.643829 
z"/>
<path fill="#F8D103" opacity="1.000000" stroke="none" 
	d="
M43.856457,97.971642 
	C44.818027,93.231407 45.576958,88.435272 46.860191,83.783775 
	C47.264107,82.319649 49.074604,81.243561 51.000038,80.007919 
	C58.488461,78.361671 65.218170,76.697365 71.931816,75.254562 
	C71.915756,75.476067 71.905533,75.920143 71.760956,76.001457 
	C71.773697,76.089615 71.931015,76.096451 72.495361,76.098587 
	C75.885765,75.423027 78.925652,74.932518 81.833656,74.021194 
	C83.954895,73.356438 85.902321,72.137062 88.319916,71.079453 
	C100.152626,67.831535 111.592636,64.669106 123.184952,61.811447 
	C125.577126,61.423798 127.816986,60.731388 130.310974,59.834846 
	C131.373428,59.375832 132.181732,59.120949 132.990051,58.866066 
	C133.159363,58.896912 133.328674,58.927757 134.119507,58.955898 
	C140.413208,56.885387 146.085373,54.817585 151.757553,52.749779 
	C151.640549,53.109802 151.523560,53.469826 151.406555,53.829849 
	C153.112869,54.273155 154.819199,54.716461 156.683685,55.467789 
	C158.409561,57.475784 160.546890,58.920433 161.443665,60.921139 
	C164.839447,68.497162 171.573761,69.325981 178.504944,70.134567 
	C183.989029,70.774361 189.460526,71.797722 195.040390,69.378563 
	C193.539658,66.950890 192.279861,64.912979 191.020081,62.875061 
	C192.071198,63.256397 193.567612,63.319164 194.103897,64.068817 
	C198.971970,70.873650 206.661942,70.502998 213.625504,71.984047 
	C215.354553,72.351784 217.106995,72.617851 218.823715,73.033768 
	C225.329834,74.610023 229.405045,79.929054 228.866074,86.701485 
	C228.772110,87.882156 226.876984,88.919479 225.150528,89.971878 
	C224.272354,89.609802 224.057404,89.298851 223.784912,88.615723 
	C223.131012,86.442284 222.779205,84.505486 221.875381,82.874611 
	C220.785095,80.907265 219.527512,78.054451 217.811615,77.603271 
	C213.418808,76.448257 208.731918,76.411674 203.814117,75.890930 
	C204.718994,79.785057 205.439819,82.887169 206.043152,86.256058 
	C205.556717,86.963417 205.187790,87.404007 204.477051,87.949219 
	C199.708649,91.022049 195.282043,93.990250 190.501495,97.024261 
	C185.880341,100.255142 187.185150,104.887741 186.562256,109.070816 
	C176.784302,105.978554 167.422699,102.937752 158.169510,99.932167 
	C158.169510,102.387321 158.169510,105.185867 158.086914,108.298592 
	C157.906815,109.035431 157.809280,109.458092 157.391296,109.838371 
	C156.075653,109.464554 155.080475,109.133125 154.285278,108.452988 
	C154.654678,106.318497 154.718445,104.514931 155.015366,102.750595 
	C155.646729,98.998825 154.223923,96.757538 150.426300,96.149063 
	C139.677124,94.426727 128.964157,92.377037 118.157722,91.158722 
	C113.174721,90.596947 107.986160,91.484703 102.927895,92.048149 
	C94.476112,92.989609 86.054092,94.198296 77.619537,95.294502 
	C87.871735,95.647247 97.996460,94.489311 108.150436,94.105637 
	C118.237312,93.724495 128.195435,95.175995 137.947372,97.573647 
	C137.909424,98.102127 137.871460,98.630600 137.833496,99.159081 
	C129.564667,99.159081 121.295822,99.159081 112.579361,99.091736 
	C109.414673,99.069786 106.697594,99.115181 103.583542,99.093140 
	C101.133644,99.402626 99.080704,99.779541 96.652840,100.079468 
	C95.517212,99.991364 94.756516,99.980255 93.606628,99.904861 
	C91.423409,100.059608 89.629379,100.278641 87.500259,100.528252 
	C86.756104,100.738007 86.347046,100.917168 85.509018,101.056625 
	C77.737228,101.726418 70.394432,102.435936 62.696808,103.057480 
	C61.324261,102.231575 60.322529,101.470284 59.285633,100.760345 
	C56.762398,99.032745 54.237659,97.251747 50.654068,99.090057 
	C48.953693,99.392189 47.607761,99.771469 45.898632,100.080940 
	C45.048553,99.944290 44.561676,99.877449 44.069305,99.499886 
	C43.994694,98.783318 43.925575,98.377480 43.856457,97.971642 
M124.504807,85.100296 
	C134.260529,85.685654 144.016251,86.271004 153.882935,86.863014 
	C153.882935,84.094727 153.936646,80.477882 153.868652,76.863312 
	C153.792114,72.795433 151.748718,70.227242 147.650589,69.796692 
	C142.215652,69.225723 136.721115,68.295677 131.309616,68.586876 
	C106.682396,69.912064 83.170288,76.767479 59.584030,83.354988 
	C54.086411,84.890434 53.181381,87.863525 53.443115,93.177292 
	C59.075191,92.569206 64.452354,92.514267 69.573082,91.340553 
	C87.342445,87.267662 105.289444,85.078064 124.504807,85.100296 
M160.471390,73.092552 
	C161.763474,77.240608 163.055557,81.388672 164.347641,85.536728 
	C164.892883,75.897453 162.468750,67.191216 155.647430,60.379215 
	C153.537857,58.272518 150.083267,57.512657 147.244507,56.136143 
	C146.942261,56.637398 146.640015,57.138649 146.337769,57.639900 
	C154.224319,59.618927 157.864716,65.384239 160.471390,73.092552 
z"/>
<path fill="#FFFFFE" opacity="1.000000" stroke="none" 
	d="
M132.994690,58.450848 
	C132.181732,59.120949 131.373428,59.375832 129.925400,59.790596 
	C127.201347,60.469215 125.116997,60.987946 123.032654,61.506676 
	C111.592636,64.669106 100.152626,67.831535 87.919899,70.983749 
	C82.067421,72.326706 77.007645,73.679878 71.947876,75.033051 
	C65.218170,76.697365 58.488461,78.361671 51.365040,79.944023 
	C52.132587,76.550652 53.584194,73.293030 50.144127,70.253960 
	C49.618404,69.789513 50.346035,68.052345 50.250832,66.924347 
	C50.049301,64.536545 49.743382,62.152901 49.348728,59.789520 
	C49.258076,59.246651 48.328857,58.806385 48.305756,58.295380 
	C48.038555,52.385334 48.892586,46.183357 47.336155,40.653549 
	C46.207649,36.644089 45.192070,33.250214 48.270813,30.566305 
	C52.372143,26.990948 56.970535,23.829903 61.799088,21.357330 
	C62.964764,20.760418 67.293388,23.207085 67.715088,24.874392 
	C69.011444,29.999962 75.590446,32.816952 73.563774,39.524200 
	C73.069931,41.158558 76.067329,43.948700 77.699974,46.017632 
	C77.949234,46.333496 79.502701,45.594322 80.461937,45.384144 
	C81.200005,45.222424 81.947906,45.082680 82.698868,45.006638 
	C85.746017,44.698090 88.796036,44.417919 91.845001,44.127277 
	C91.520233,43.651093 91.195465,43.174908 90.870697,42.698723 
	C91.805099,41.506390 92.726585,39.291061 93.675880,39.279087 
	C103.786598,39.151497 113.980385,38.654320 123.988297,39.749130 
	C130.788834,40.493076 131.276733,42.495564 132.021805,51.343460 
	C132.210632,53.585720 132.666260,55.805515 132.994690,58.450848 
z"/>
<path fill="#FFFFFF" opacity="1.000000" stroke="none" 
	d="
M156.525513,55.159771 
	C154.819199,54.716461 153.112869,54.273155 151.406555,53.829849 
	C151.523560,53.469826 151.640549,53.109802 151.757553,52.749779 
	C146.085373,54.817585 140.413208,56.885387 134.369324,58.890839 
	C134.336472,53.798775 134.587952,48.760536 135.077728,43.745567 
	C135.195160,42.543022 136.104965,41.417862 137.389145,40.646290 
	C137.389145,38.465641 137.379013,36.284924 137.392838,34.104362 
	C137.401566,32.727825 138.042831,30.821527 137.371994,30.066238 
	C134.359085,26.674028 136.893433,26.353384 139.672684,25.747402 
	C139.122742,22.012537 138.161636,18.210287 138.286957,14.444188 
	C138.318771,13.487978 141.806656,12.646768 144.316132,11.465830 
	C144.316132,9.774688 144.316132,6.611077 144.316132,2.887617 
	C148.887421,3.732471 153.448532,4.404606 157.904465,5.503323 
	C159.237473,5.832004 161.714920,6.541467 159.050232,9.158793 
	C157.733826,10.451799 157.875290,13.229048 157.261475,15.723373 
	C158.479660,15.823098 159.848892,15.587554 160.800186,16.111238 
	C161.743652,16.630617 163.014374,18.085236 162.843750,18.833946 
	C162.104675,22.077366 160.980331,25.247423 159.771469,28.356831 
	C159.537933,28.957539 158.298157,29.167051 157.456314,29.590322 
	C160.828400,30.158966 162.624344,30.805000 159.496521,34.462261 
	C158.062042,36.139565 158.611694,39.425068 157.960754,41.902222 
	C157.676041,42.985703 156.637329,43.871056 156.041489,44.705624 
	C157.017502,45.066235 158.579880,45.643490 159.670395,46.046406 
	C158.641312,48.808647 157.825760,50.997726 156.951141,53.901573 
	C156.769897,54.797485 156.647705,54.978630 156.525513,55.159771 
z"/>
<path fill="#F8F1F3" opacity="1.000000" stroke="none" 
	d="
M190.855438,96.958450 
	C195.282043,93.990250 199.708649,91.022049 204.947662,88.037521 
	C212.651459,87.525238 219.327560,87.963608 225.066650,92.469170 
	C225.066650,92.469170 225.321625,92.842316 225.562469,93.255630 
	C229.731461,98.175522 229.875381,103.389000 228.421448,109.106148 
	C226.372177,111.861961 224.542542,114.371582 222.409668,116.969330 
	C220.722458,117.994453 219.338486,118.931442 217.580200,119.910461 
	C214.882187,120.632988 212.536102,121.251480 210.262726,122.071472 
	C209.974472,122.175438 210.066971,123.334991 210.023102,124.347931 
	C214.724121,132.010574 220.949020,137.003983 229.826080,138.215698 
	C230.258575,138.274734 230.507324,139.680130 230.544174,140.615707 
	C229.111252,141.401443 227.975800,142.030045 226.529205,142.700775 
	C225.812546,142.840744 225.407028,142.938583 224.643188,142.945068 
	C215.205307,140.733215 210.158783,133.900681 205.497971,125.791977 
	C204.949570,128.118042 204.609467,129.560684 204.136566,131.388748 
	C203.670731,134.186935 203.337677,136.599716 202.585663,139.052673 
	C201.044144,137.806625 198.969849,136.510803 198.982681,135.235962 
	C199.017151,131.807129 200.033463,128.398712 200.468567,124.957977 
	C200.633270,123.655556 200.377716,122.266396 200.121017,120.954491 
	C199.900940,119.829819 199.405914,118.758949 199.032486,117.664291 
	C200.250351,117.807236 201.468231,117.950172 202.941467,118.123093 
	C204.102539,114.556526 205.275742,110.952682 206.793549,106.290306 
	C203.990936,107.335320 202.620102,108.272697 201.248001,108.274567 
	C197.759201,108.279320 193.650848,108.930862 190.935287,107.353142 
	C187.436569,105.320412 189.500366,101.476181 190.950928,98.419868 
	C191.133759,98.034615 190.897507,97.450455 190.855438,96.958450 
M204.900848,101.064720 
	C206.138306,100.114807 207.352798,99.132896 208.619370,98.223557 
	C210.009247,97.225693 211.447159,96.294731 213.341980,95.843994 
	C213.671585,97.798508 214.632004,99.903328 214.209015,101.678505 
	C213.074631,106.439255 211.348038,111.058884 209.285355,116.306015 
	C209.089798,117.088745 208.894241,117.871483 208.687698,118.698189 
	C213.960114,118.519798 218.411957,116.095894 221.748230,111.670631 
	C226.394348,105.507965 226.121353,98.314644 221.087738,94.266914 
	C215.916183,90.108231 206.664139,91.160805 201.440948,96.798218 
	C199.143677,99.190964 196.846405,101.583717 194.050217,104.496117 
	C199.262833,106.357788 201.886230,104.146423 204.900848,101.064720 
z"/>
<path fill="#920D33" opacity="1.000000" stroke="none" 
	d="
M43.504707,98.015152 
	C43.925575,98.377480 43.994694,98.783318 44.041832,99.800575 
	C44.012833,100.612785 44.005814,100.813576 43.734444,101.237396 
	C37.131138,103.967575 32.683498,108.221100 30.603851,115.082886 
	C28.232708,119.265999 29.265593,122.674416 32.745541,123.158630 
	C32.869106,123.284462 32.878181,123.637077 32.642918,123.969368 
	C32.960785,125.723114 33.146458,127.517570 34.137814,128.494202 
	C36.821796,131.138336 40.011230,133.271805 42.674397,135.933746 
	C44.161716,137.420380 45.000385,139.555984 45.903046,141.566803 
	C45.116531,141.759781 44.558331,141.785065 43.951107,141.537354 
	C43.585342,140.982254 43.268600,140.700150 42.951859,140.418030 
	C42.634529,140.886154 42.317204,141.354294 41.693878,141.877197 
	C40.585037,141.776733 39.782196,141.621475 38.954491,141.090698 
	C35.860176,136.696320 35.336781,136.527969 32.651794,138.790192 
	C31.361708,139.506775 30.456123,140.252686 29.251511,141.104233 
	C28.728971,142.163788 28.505465,143.117722 28.281956,144.071655 
	C28.882746,143.991013 29.483534,143.910385 30.346565,143.978333 
	C31.151131,144.708755 31.693451,145.290588 31.972374,146.069733 
	C31.699436,146.714432 31.496191,147.404053 31.708588,147.573898 
	C37.554546,152.248611 52.473648,149.896149 55.935425,141.769775 
	C56.375717,140.736206 57.319946,139.251770 58.156509,139.163086 
	C62.771511,138.673965 67.597443,137.357544 71.543800,141.302353 
	C69.525063,142.760498 67.540291,143.776703 65.804733,145.115891 
	C64.979927,145.752319 64.630241,147.004486 63.739342,148.032608 
	C63.566002,149.028412 63.380402,150.445374 63.926094,150.833069 
	C67.504623,153.375610 73.382095,152.144485 76.256645,148.039429 
	C78.509979,144.821503 80.247223,141.242203 82.415840,137.472137 
	C86.607780,137.932800 91.073669,138.332184 95.511162,138.939194 
	C99.277466,139.454391 102.989815,140.504135 106.764961,140.775040 
	C110.525696,141.044907 114.903023,141.797272 117.998779,140.277802 
	C123.600182,137.528519 129.465942,138.738159 135.065399,137.932861 
	C143.412170,136.732452 152.118973,138.006958 160.671173,138.273560 
	C166.187134,138.445511 171.700562,138.698273 177.215134,138.914825 
	C177.304092,139.485168 177.393051,140.055496 177.482010,140.625824 
	C175.650238,141.429550 173.735443,142.090195 172.016052,143.087646 
	C170.883194,143.744827 169.053955,145.458054 169.208160,145.722046 
	C170.493149,147.922119 171.810730,150.996689 173.817322,151.645294 
	C176.092422,152.380722 180.558762,153.871872 181.017136,148.182999 
	C183.484375,144.282486 185.768890,140.642258 188.383453,136.939484 
	C189.107697,135.238235 189.501907,133.599533 189.900574,131.587357 
	C190.460861,128.871277 191.016678,126.528687 191.904480,123.954056 
	C191.825531,121.160057 191.414627,118.598114 191.419235,115.997650 
	C193.223709,116.016121 194.612686,116.073105 196.001953,116.529083 
	C196.424988,118.575661 197.121948,120.212868 197.184738,121.874046 
	C197.236069,123.232056 196.530777,124.618668 196.160919,125.992592 
	C196.057297,125.337891 195.953674,124.683182 195.924164,124.496727 
	C193.224045,131.403168 190.713089,138.826431 187.421585,145.885742 
	C185.301865,150.431915 181.875488,154.653442 176.025604,153.838058 
	C173.237625,153.449463 169.715149,152.001923 168.309738,149.862106 
	C166.991959,147.855713 168.027557,144.303665 168.027557,140.987671 
	C160.329926,140.987671 151.506485,140.997406 142.683090,140.979019 
	C141.023361,140.975555 139.269165,141.186996 137.720779,140.738861 
	C131.328903,138.888870 125.210342,140.736496 119.328247,142.511032 
	C114.356270,144.011002 109.960190,145.067368 105.167648,142.182785 
	C103.281227,141.047363 100.820778,140.602066 98.570618,140.393219 
	C94.708191,140.034760 90.805023,140.126923 86.920158,139.994568 
	C84.467484,139.911026 82.991684,140.339447 81.641243,143.130386 
	C79.412918,147.735641 77.173920,153.105881 70.978500,153.953430 
	C61.641422,155.230774 57.603245,149.956055 60.613483,140.636795 
	C59.528763,141.497528 57.967972,142.132385 57.435356,143.255051 
	C53.511280,151.526337 39.935150,154.355652 31.107002,149.976639 
	C27.148314,148.013031 25.306602,144.523697 26.133949,140.066833 
	C26.844809,136.237488 28.947620,135.234985 37.042152,134.754074 
	C35.361862,132.987671 34.082897,131.639236 32.799736,130.294830 
	C23.340088,120.383629 26.912191,107.302277 37.381573,100.920654 
	C39.208195,99.807236 41.224346,99.004753 43.504707,98.015152 
z"/>
<path fill="#F7EEF1" opacity="1.000000" stroke="none" 
	d="
M236.491745,106.997467 
	C236.712784,107.096809 236.937180,107.105064 237.695709,107.079063 
	C238.485382,107.104652 238.744293,107.073387 239.300537,107.241806 
	C240.932190,108.939362 242.266525,110.437241 244.070923,112.462791 
	C244.900635,110.521629 245.613953,108.852760 246.665192,106.393341 
	C248.224731,107.859299 249.472794,109.032471 250.185196,109.702126 
	C252.768997,108.940971 256.018219,106.894234 257.570374,107.789558 
	C259.736786,109.039200 260.351624,108.311356 261.929840,107.469994 
	C263.195526,106.795235 265.590393,106.392929 266.368225,107.099037 
	C267.425262,108.058632 267.954498,110.262794 267.744904,111.801735 
	C267.417206,114.207458 266.280609,116.502983 265.486694,118.845200 
	C265.783508,119.274361 266.080292,119.703522 266.377106,120.132683 
	C270.208954,110.265701 276.410797,105.054893 286.858917,108.186661 
	C286.858917,108.186661 286.890869,108.079597 286.788513,108.476234 
	C286.680847,112.997742 284.168365,117.275757 287.439209,121.200500 
	C287.439209,121.200500 287.285278,121.394585 286.982452,121.614281 
	C281.986542,126.842957 280.909332,126.909111 277.493164,122.398140 
	C272.688171,126.940521 271.533234,126.979630 267.302917,122.791214 
	C266.153351,123.714897 265.009949,124.633606 263.488159,125.592789 
	C259.113831,125.608017 259.704224,122.787689 260.230499,120.451683 
	C261.011047,116.986748 262.192871,113.612198 263.399170,110.098526 
	C263.531708,109.752106 263.468933,109.506325 263.406128,109.260551 
	C263.198944,109.434517 262.991791,109.608490 262.447266,109.861176 
	C261.001556,111.364006 259.468231,112.631210 258.872589,114.244606 
	C257.594971,117.705048 256.801300,121.344162 255.594635,124.922699 
	C255.379837,124.935280 254.990112,125.117744 254.701157,125.098297 
	C254.146408,125.340042 253.880615,125.601227 253.475723,125.798645 
	C253.336624,125.734886 253.053879,125.851997 252.765411,125.616592 
	C252.476944,121.290108 252.476944,117.199020 252.476944,112.788971 
	C251.711151,113.446327 250.693390,113.903198 250.395142,114.648132 
	C249.098557,117.886826 248.011536,121.209419 246.553009,124.623199 
	C245.505630,125.131149 244.753601,125.517410 243.619873,125.850815 
	C238.095093,124.297234 243.180099,120.560532 241.389511,117.651550 
	C240.175934,119.382439 239.480286,121.274986 238.132019,122.096718 
	C235.834412,123.497002 232.831345,125.474884 230.656113,124.960915 
	C226.748901,124.037712 226.838028,119.736115 228.311752,117.096130 
	C230.392273,113.369202 233.705505,110.330429 236.491745,106.997467 
M274.221802,116.260490 
	C274.061768,117.591949 273.901764,118.923409 273.687561,120.705772 
	C279.497192,117.561584 281.583252,113.777878 279.634857,108.789856 
	C277.702820,111.359512 276.140625,113.437279 274.221802,116.260490 
M236.005554,112.505272 
	C234.838684,115.087318 233.671814,117.669373 232.504944,120.251419 
	C233.363007,120.639908 234.221069,121.028404 235.079132,121.416893 
	C236.845932,117.761124 238.612732,114.105347 240.379532,110.449570 
	C240.013657,110.182274 239.647797,109.914970 239.281921,109.647675 
	C238.348419,110.405846 237.414917,111.164017 236.005554,112.505272 
z"/>
<path fill="#950F30" opacity="1.000000" stroke="none" 
	d="
M156.683685,55.467789 
	C156.647705,54.978630 156.769897,54.797485 157.016037,54.313293 
	C165.830597,53.862766 174.512161,53.848957 182.434952,58.214828 
	C184.411346,59.303917 186.225311,60.687786 188.636017,62.357063 
	C189.791138,62.836170 190.424133,62.894386 191.057144,62.952602 
	C191.057144,62.952602 190.987839,62.938225 191.003967,62.906647 
	C192.279861,64.912979 193.539658,66.950890 195.040390,69.378563 
	C189.460526,71.797722 183.989029,70.774361 178.504944,70.134567 
	C171.573761,69.325981 164.839447,68.497162 161.443665,60.921139 
	C160.546890,58.920433 158.409561,57.475784 156.683685,55.467789 
z"/>
<path fill="#8E1134" opacity="1.000000" stroke="none" 
	d="
M196.097229,126.315201 
	C196.530777,124.618668 197.236069,123.232056 197.184738,121.874046 
	C197.121948,120.212868 196.424988,118.575661 196.395874,116.408813 
	C198.993607,115.501945 202.192123,116.494911 201.692108,111.826317 
	C197.462051,111.826317 193.220871,111.826317 188.809372,111.569550 
	C188.085556,110.582611 187.532059,109.852448 186.978577,109.122284 
	C187.185150,104.887741 185.880341,100.255142 190.501495,97.024261 
	C190.897507,97.450455 191.133759,98.034615 190.950928,98.419868 
	C189.500366,101.476181 187.436569,105.320412 190.935287,107.353142 
	C193.650848,108.930862 197.759201,108.279320 201.248001,108.274567 
	C202.620102,108.272697 203.990936,107.335320 206.793549,106.290306 
	C205.275742,110.952682 204.102539,114.556526 202.941467,118.123093 
	C201.468231,117.950172 200.250351,117.807236 199.032486,117.664291 
	C199.405914,118.758949 199.900940,119.829819 200.121017,120.954491 
	C200.377716,122.266396 200.633270,123.655556 200.468567,124.957977 
	C200.033463,128.398712 199.017151,131.807129 198.982681,135.235962 
	C198.969849,136.510803 201.044144,137.806625 202.595825,139.423157 
	C203.110260,140.241180 203.195541,140.728943 203.280823,141.216690 
	C203.280807,141.216690 203.223557,141.203156 202.766006,141.142578 
	C200.515823,141.070343 198.723190,141.058685 196.930557,141.047028 
	C196.930557,141.047028 196.998749,141.007492 196.981567,140.621857 
	C196.609360,136.139481 196.254318,132.042725 195.899277,127.945976 
	C195.944031,127.509918 195.988785,127.073868 196.097229,126.315201 
z"/>
<path fill="#93153A" opacity="1.000000" stroke="none" 
	d="
M286.874725,107.785011 
	C276.410797,105.054893 270.208954,110.265701 266.377106,120.132683 
	C266.080292,119.703522 265.783508,119.274361 265.486694,118.845200 
	C266.280609,116.502983 267.417206,114.207458 267.744904,111.801735 
	C267.954498,110.262794 267.425262,108.058632 266.368225,107.099037 
	C265.590393,106.392929 263.195526,106.795235 261.929840,107.469994 
	C260.351624,108.311356 259.736786,109.039200 257.570374,107.789558 
	C256.018219,106.894234 252.768997,108.940971 250.185196,109.702126 
	C249.472794,109.032471 248.224731,107.859299 246.665192,106.393341 
	C245.613953,108.852760 244.900635,110.521629 244.070923,112.462791 
	C242.266525,110.437241 240.932190,108.939362 239.246582,106.834747 
	C238.835312,105.960899 238.775330,105.693802 238.715363,105.426712 
	C243.692886,105.193962 248.726944,104.394005 253.632568,104.882812 
	C258.877563,105.405434 264.999390,101.034744 269.395660,107.255974 
	C275.209778,104.917526 281.067841,102.690880 286.874725,107.785011 
z"/>
<path fill="#8B0C33" opacity="1.000000" stroke="none" 
	d="
M236.476807,106.613525 
	C233.705505,110.330429 230.392273,113.369202 228.311752,117.096130 
	C226.838028,119.736115 226.748901,124.037712 230.656113,124.960915 
	C232.831345,125.474884 235.834412,123.497002 238.132019,122.096718 
	C239.480286,121.274986 240.175934,119.382439 241.389511,117.651550 
	C243.180099,120.560532 238.095093,124.297234 243.619995,126.220230 
	C244.003159,127.379677 244.004471,128.116852 244.005798,128.854034 
	C243.242310,128.890640 242.478806,128.927261 241.212433,128.717117 
	C240.492828,128.242706 240.230820,128.095612 239.923569,128.029099 
	C239.923569,128.029099 239.995255,128.022354 239.952576,127.703697 
	C238.976883,126.785988 237.798660,125.489441 237.155701,125.715477 
	C235.017731,126.467064 233.072128,127.765770 231.052765,128.854721 
	C230.592957,128.887802 230.133133,128.920883 229.259033,128.567657 
	C227.855103,127.801773 226.865448,127.422203 225.875809,127.042633 
	C225.559448,126.979286 225.310364,126.814354 225.056274,125.889961 
	C224.226959,122.448463 223.469925,119.664825 222.712891,116.881195 
	C224.542542,114.371582 226.372177,111.861961 228.775635,109.117874 
	C230.224213,107.977104 231.098999,107.070824 231.973770,106.164543 
	C231.973770,106.164543 232.416931,106.030380 232.867584,105.920776 
	C233.607025,105.662155 233.817017,105.438988 233.948227,105.141678 
	C234.786102,105.504311 235.623993,105.866943 236.476807,106.613525 
z"/>
<path fill="#920D33" opacity="1.000000" stroke="none" 
	d="
M222.409668,116.969330 
	C223.469925,119.664825 224.226959,122.448463 224.971130,125.677719 
	C224.092148,124.573532 223.226044,123.023727 222.108734,121.024368 
	C219.401474,122.356651 216.516785,123.776253 213.321945,125.348480 
	C217.167770,130.460983 221.642181,134.310120 228.075867,134.957016 
	C234.007751,135.553452 235.054047,137.630249 231.316010,142.511017 
	C230.939072,141.644699 230.890350,141.051636 230.841644,140.458588 
	C230.507324,139.680130 230.258575,138.274734 229.826080,138.215698 
	C220.949020,137.003983 214.724121,132.010574 210.395248,124.302666 
	C213.136398,122.566132 215.545456,121.217285 217.954498,119.868439 
	C219.338486,118.931442 220.722458,117.994453 222.409668,116.969330 
z"/>
<path fill="#920D33" opacity="1.000000" stroke="none" 
	d="
M263.866577,125.552315 
	C265.009949,124.633606 266.153351,123.714897 267.302917,122.791214 
	C271.533234,126.979630 272.688171,126.940521 277.493164,122.398140 
	C280.909332,126.909111 281.986542,126.842957 286.979919,121.738129 
	C287.099335,126.254387 283.102936,129.312088 278.074127,129.017151 
	C273.301300,128.737228 268.509674,128.778427 263.408569,128.423767 
	C263.349396,127.296852 263.607971,126.424583 263.866577,125.552315 
z"/>
<path fill="#8C0F36" opacity="1.000000" stroke="none" 
	d="
M263.488190,125.592789 
	C263.607971,126.424583 263.349396,127.296852 263.048065,128.507812 
	C262.547455,128.882294 262.089630,128.918060 261.084717,128.662842 
	C258.961578,127.217949 257.385529,126.064026 255.809448,124.910110 
	C256.801300,121.344162 257.594971,117.705048 258.872589,114.244606 
	C259.468231,112.631210 261.001556,111.364006 262.551849,109.965591 
	C262.993805,109.991287 263.203888,110.199173 263.203888,110.199173 
	C262.192871,113.612198 261.011047,116.986748 260.230499,120.451683 
	C259.704224,122.787689 259.113831,125.608017 263.488190,125.592789 
z"/>
<path fill="#8E143A" opacity="1.000000" stroke="none" 
	d="
M246.848389,124.501526 
	C248.011536,121.209419 249.098557,117.886826 250.395142,114.648132 
	C250.693390,113.903198 251.711151,113.446327 252.476944,112.788971 
	C252.476944,117.199020 252.476944,121.290108 252.747955,125.989441 
	C253.009155,127.343224 252.999344,128.088760 252.989532,128.834305 
	C252.547150,128.868698 252.104782,128.903076 251.257385,128.554138 
	C249.865829,127.792084 248.879303,127.413338 247.892776,127.034592 
	C247.892776,127.034592 247.463974,127.044266 247.229645,126.637955 
	C246.946335,125.654938 246.897369,125.078232 246.848389,124.501526 
z"/>
<path fill="#920D33" opacity="1.000000" stroke="none" 
	d="
M287.766724,121.406738 
	C284.168365,117.275757 286.680847,112.997742 286.732666,108.477036 
	C292.404022,113.981934 292.556610,115.551743 287.766724,121.406738 
z"/>
<path fill="#93153A" opacity="1.000000" stroke="none" 
	d="
M225.227722,92.097900 
	C219.327560,87.963608 212.651459,87.525238 205.289474,87.932899 
	C205.187790,87.404007 205.556717,86.963417 206.492355,86.263489 
	C212.918381,85.508926 218.573196,86.164024 223.842453,88.987900 
	C224.057404,89.298851 224.272354,89.609802 224.749268,90.039825 
	C225.137085,90.681480 225.262939,91.204063 225.227722,92.097900 
z"/>
<path fill="#93153A" opacity="1.000000" stroke="none" 
	d="
M231.658752,105.896042 
	C231.098999,107.070824 230.224213,107.977104 228.995239,108.871674 
	C229.875381,103.389000 229.731461,98.175522 225.667679,93.301987 
	C230.133148,93.329659 229.971939,97.320435 230.904968,100.320480 
	C231.419525,101.974953 231.220856,103.851250 231.658752,105.896042 
z"/>
<path fill="#920D33" opacity="1.000000" stroke="none" 
	d="
M225.001495,143.036407 
	C225.407028,142.938583 225.812546,142.840744 226.742111,143.013611 
	C228.223679,143.535492 229.181213,143.786667 230.138748,144.037842 
	C224.494736,147.788925 219.284683,146.415985 214.130096,142.353516 
	C213.986618,142.012878 214.042358,141.955185 214.421326,141.977661 
	C217.112686,142.798019 219.381744,143.812988 221.758682,144.287598 
	C222.718094,144.479156 223.913483,143.488861 225.001495,143.036407 
z"/>
<path fill="#920D33" opacity="1.000000" stroke="none" 
	d="
M203.631409,141.170959 
	C203.195541,140.728943 203.110260,140.241180 203.014801,139.382965 
	C203.337677,136.599716 203.670731,134.186935 204.449463,131.459045 
	C205.611084,132.415146 206.327042,133.686356 207.015015,134.985275 
	C206.987030,135.012970 206.930954,135.068222 206.930954,135.068222 
	C205.947968,137.087234 204.964996,139.106232 203.631409,141.170959 
z"/>
<path fill="#920D33" opacity="1.000000" stroke="none" 
	d="
M253.357971,128.872925 
	C252.999344,128.088760 253.009155,127.343224 253.036423,126.224838 
	C253.053879,125.851997 253.336624,125.734886 253.744720,125.759445 
	C254.431915,125.561920 254.711014,125.339836 254.990112,125.117744 
	C254.990112,125.117744 255.379837,124.935280 255.594635,124.922691 
	C257.385529,126.064026 258.961578,127.217949 260.743103,128.611053 
	C258.541199,128.870682 256.133820,128.891113 253.357971,128.872925 
z"/>
<path fill="#920D33" opacity="1.000000" stroke="none" 
	d="
M195.588150,128.225327 
	C196.254318,132.042725 196.609360,136.139481 196.958511,140.653839 
	C193.012054,137.333466 195.644119,132.719116 195.588150,128.225327 
z"/>
<path fill="#920D33" opacity="1.000000" stroke="none" 
	d="
M231.428009,128.907227 
	C233.072128,127.765770 235.017731,126.467064 237.155701,125.715477 
	C237.798660,125.489441 238.976883,126.785988 239.932434,127.733528 
	C237.237701,128.374588 234.520477,128.667145 231.428009,128.907227 
z"/>
<path fill="#920D33" opacity="1.000000" stroke="none" 
	d="
M246.553009,124.623207 
	C246.897369,125.078232 246.946335,125.654938 247.016968,126.665512 
	C246.239594,127.709908 245.440567,128.320435 244.323669,128.892502 
	C244.004471,128.116852 244.003159,127.379677 244.001709,126.273087 
	C244.753601,125.517410 245.505630,125.131149 246.553009,124.623207 
z"/>
<path fill="#920D33" opacity="1.000000" stroke="none" 
	d="
M197.130646,141.344727 
	C198.723190,141.058685 200.515823,141.070343 202.756409,141.170380 
	C201.478516,144.938843 199.336517,142.247940 197.130646,141.344727 
z"/>
<path fill="#8A0B32" opacity="1.000000" stroke="none" 
	d="
M230.345673,143.951233 
	C229.181213,143.786667 228.223679,143.535492 227.053238,142.971481 
	C227.975800,142.030045 229.111252,141.401443 230.544159,140.615707 
	C230.890350,141.051636 230.939072,141.644699 231.011902,142.683807 
	C230.973343,143.439575 230.812195,143.684494 230.345673,143.951233 
z"/>
<path fill="#920D33" opacity="1.000000" stroke="none" 
	d="
M209.945831,139.064072 
	C208.968414,137.949753 207.990997,136.835434 206.972260,135.394684 
	C206.930954,135.068222 206.987030,135.012970 207.362473,135.044998 
	C208.507736,136.368896 209.277573,137.660767 210.021729,138.980240 
	C209.996033,139.007843 209.945831,139.064072 209.945831,139.064072 
z"/>
<path fill="#920D33" opacity="1.000000" stroke="none" 
	d="
M213.958618,142.041595 
	C212.701859,141.261490 211.473099,140.452667 210.095078,139.353943 
	C209.945831,139.064072 209.996033,139.007843 210.378616,139.001419 
	C211.854919,139.981720 212.948639,140.968460 214.042358,141.955185 
	C214.042358,141.955185 213.986618,142.012878 213.958618,142.041595 
z"/>
<path fill="#920D33" opacity="1.000000" stroke="none" 
	d="
M248.046265,127.324997 
	C248.879303,127.413338 249.865829,127.792084 250.927612,128.502304 
	C250.068512,128.427658 249.134140,128.021515 248.046265,127.324997 
z"/>
<path fill="#920D33" opacity="1.000000" stroke="none" 
	d="
M226.033936,127.328018 
	C226.865448,127.422203 227.855103,127.801773 228.916382,128.514709 
	C228.056015,128.436523 227.124039,128.024963 226.033936,127.328018 
z"/>
<path fill="#F8D103" opacity="1.000000" stroke="none" 
	d="
M190.926224,62.636421 
	C190.424133,62.894386 189.791138,62.836170 188.971802,62.437569 
	C189.455429,62.171528 190.125366,62.245884 190.926224,62.636421 
z"/>
<path fill="#920D33" opacity="1.000000" stroke="none" 
	d="
M240.020386,128.251831 
	C240.230820,128.095612 240.492828,128.242706 240.833359,128.660797 
	C240.594421,128.910263 240.314438,128.784698 240.020386,128.251831 
z"/>
<path fill="#8B0C33" opacity="1.000000" stroke="none" 
	d="
M238.415344,105.576408 
	C238.775330,105.693802 238.835312,105.960899 238.949265,106.635071 
	C238.744293,107.073387 238.485382,107.104652 237.853607,107.011307 
	C237.692261,106.499832 237.903793,106.112968 238.415344,105.576408 
z"/>
<path fill="#93153A" opacity="1.000000" stroke="none" 
	d="
M233.703278,105.166016 
	C233.817017,105.438988 233.607025,105.662155 233.096634,105.887192 
	C232.970337,105.630753 233.164764,105.373131 233.703278,105.166016 
z"/>
<path fill="#950F30" opacity="1.000000" stroke="none" 
	d="
M124.008926,85.102066 
	C105.289444,85.078064 87.342445,87.267662 69.573082,91.340553 
	C64.452354,92.514267 59.075191,92.569206 53.443115,93.177292 
	C53.181381,87.863525 54.086411,84.890434 59.584030,83.354988 
	C83.170288,76.767479 106.682396,69.912064 131.309616,68.586876 
	C136.721115,68.295677 142.215652,69.225723 147.650589,69.796692 
	C151.748718,70.227242 153.792114,72.795433 153.868652,76.863312 
	C153.936646,80.477882 153.882935,84.094727 153.882935,86.863014 
	C144.016251,86.271004 134.260529,85.685654 124.008926,85.102066 
z"/>
<path fill="#F9F2F4" opacity="1.000000" stroke="none" 
	d="
M32.235771,145.872406 
	C31.693451,145.290588 31.151131,144.708755 30.302275,143.620468 
	C29.847340,142.408875 29.698940,141.703735 29.550541,140.998611 
	C30.456123,140.252686 31.361708,139.506775 32.862053,139.092773 
	C35.297657,140.105194 37.138504,140.785706 38.979355,141.466217 
	C39.782196,141.621475 40.585037,141.776733 42.024933,141.951477 
	C43.108032,141.917435 43.554077,141.863907 44.000126,141.810364 
	C44.558331,141.785065 45.116531,141.759781 46.281654,141.520905 
	C51.392094,139.123077 48.426762,137.261673 46.539410,135.567963 
	C42.040157,131.530273 37.438484,127.606728 32.878181,123.637077 
	C32.878181,123.637077 32.869106,123.284462 32.633255,122.834198 
	C31.921383,119.922173 31.445358,117.460403 30.969334,114.998634 
	C32.683498,108.221100 37.131138,103.967575 44.065544,101.256165 
	C45.194607,100.751511 45.728218,100.451126 46.261829,100.150742 
	C47.607761,99.771469 48.953693,99.392189 50.830463,99.413116 
	C54.960560,99.952515 57.950027,100.951744 58.759785,105.041496 
	C59.815304,110.372498 54.495689,118.215446 49.176540,119.165718 
	C45.634975,119.798424 44.344257,118.204018 45.304256,114.384201 
	C45.296093,114.375969 45.318600,114.372948 45.419743,114.400002 
	C45.520885,114.427055 45.880608,114.238533 46.296959,114.288475 
	C49.157101,112.235161 51.600883,110.131905 54.344444,107.785248 
	C56.209297,103.618111 54.189587,102.324944 50.921410,103.451210 
	C46.776829,104.879494 42.524681,106.583916 39.016247,109.130112 
	C33.925602,112.824570 34.058846,116.622475 38.667480,121.082535 
	C40.436836,122.794846 42.512386,124.190758 44.590370,125.922012 
	C46.193699,127.262634 47.655075,128.412079 49.351078,129.891815 
	C55.725208,138.476532 53.753658,144.770630 44.016251,146.488632 
	C40.243118,147.154343 36.171444,146.127960 32.235771,145.872406 
z"/>
<path fill="#000000" opacity="1.000000" stroke="none" 
	d="
M113.026978,99.159081 
	C121.295822,99.159081 129.564667,99.159081 137.833496,99.159081 
	C137.871460,98.630600 137.909424,98.102127 137.947372,97.573647 
	C128.195435,95.175995 118.237312,93.724495 108.150436,94.105637 
	C97.996460,94.489311 87.871735,95.647247 77.619537,95.294502 
	C86.054092,94.198296 94.476112,92.989609 102.927895,92.048149 
	C107.986160,91.484703 113.174721,90.596947 118.157722,91.158722 
	C128.964157,92.377037 139.677124,94.426727 150.426300,96.149063 
	C154.223923,96.757538 155.646729,98.998825 155.015366,102.750595 
	C154.718445,104.514931 154.654678,106.318497 154.026627,108.580780 
	C153.082642,109.354881 152.597275,109.652473 152.060455,109.587524 
	C150.356491,104.932396 147.659134,102.081474 142.676743,101.970833 
	C136.360764,101.830582 131.581024,105.414009 131.527344,114.915680 
	C129.539078,111.011124 128.940277,106.147705 123.644226,105.405487 
	C119.132797,104.773216 115.551468,102.968925 113.026978,99.159081 
z"/>
<path fill="#8B0D31" opacity="1.000000" stroke="none" 
	d="
M45.312420,114.392433 
	C44.344257,118.204018 45.634975,119.798424 49.176540,119.165718 
	C54.495689,118.215446 59.815304,110.372498 58.759785,105.041496 
	C57.950027,100.951744 54.960560,99.952515 51.184910,99.490265 
	C54.237659,97.251747 56.762398,99.032745 59.285633,100.760345 
	C60.322529,101.470284 61.324261,102.231575 62.819397,103.356804 
	C63.539181,104.766434 63.781555,105.788773 63.689545,106.883751 
	C63.897728,107.867828 64.233505,109.248192 65.024231,109.596870 
	C66.895737,110.422150 68.983330,110.757378 70.986931,111.469864 
	C70.990295,111.649002 71.002388,112.007561 70.997437,112.374786 
	C70.660133,114.156197 70.327782,115.570396 69.862411,117.186043 
	C70.486046,117.590645 71.242722,117.793793 71.999313,118.232689 
	C71.999245,118.468437 71.998642,118.939926 71.755173,119.191315 
	C69.530602,121.287102 67.549500,123.131508 65.739578,124.816551 
	C64.757378,122.412048 63.859627,120.214272 62.991936,117.667252 
	C64.610435,115.991859 66.198883,114.665733 68.759781,112.527725 
	C66.583267,112.128883 64.319878,111.375671 64.126602,111.735222 
	C63.096237,113.652046 62.583797,115.847267 61.545692,118.016129 
	C60.551495,119.786583 59.903763,121.487076 59.185379,122.752617 
	C59.099613,120.560181 59.084499,118.802696 59.253242,116.906723 
	C59.423885,116.418442 59.410671,116.068657 59.397453,115.718880 
	C59.232483,116.114014 59.067505,116.509148 58.559776,116.971153 
	C54.764275,120.644135 51.021938,123.584793 45.541958,122.691879 
	C45.443073,122.675766 45.202705,123.527908 44.828506,124.395790 
	C44.568577,125.121376 44.508495,125.426109 44.448414,125.730843 
	C42.512386,124.190758 40.436836,122.794846 38.667480,121.082535 
	C34.058846,116.622475 33.925602,112.824570 39.016247,109.130112 
	C42.524681,106.583916 46.776829,104.879494 50.921410,103.451210 
	C54.189587,102.324944 56.209297,103.618111 53.995495,107.632332 
	C47.662354,105.891464 44.102264,109.409920 40.651604,112.916832 
	C37.876652,115.737007 38.692158,117.998085 41.102787,119.252800 
	C42.737507,117.365379 44.024963,115.878906 45.312420,114.392433 
z"/>
<path fill="#000000" opacity="1.000000" stroke="none" 
	d="
M186.562256,109.070816 
	C187.532059,109.852448 188.085556,110.582611 188.396301,111.637329 
	C181.588989,110.311806 175.024399,108.661720 167.651138,106.808357 
	C168.178619,109.613800 168.581116,111.754517 168.590973,113.935036 
	C166.643967,114.185112 165.089600,114.395370 164.489624,114.476532 
	C162.782669,112.608147 161.506042,111.210770 160.154053,109.850143 
	C160.078720,109.886894 160.200882,109.772072 160.197479,109.460365 
	C159.519211,108.760574 158.844360,108.372490 158.169510,107.984406 
	C158.169510,105.185867 158.169510,102.387321 158.169510,99.932167 
	C167.422699,102.937752 176.784302,105.978554 186.562256,109.070816 
z"/>
<path fill="#000000" opacity="1.000000" stroke="none" 
	d="
M223.784912,88.615730 
	C218.573196,86.164024 212.918381,85.508926 206.609863,85.996727 
	C205.439819,82.887169 204.718994,79.785057 203.814117,75.890930 
	C208.731918,76.411674 213.418808,76.448257 217.811615,77.603271 
	C219.527512,78.054451 220.785095,80.907265 221.875381,82.874611 
	C222.779205,84.505486 223.131012,86.442284 223.784912,88.615730 
z"/>
<path fill="#911236" opacity="1.000000" stroke="none" 
	d="
M112.579361,99.091736 
	C115.551468,102.968925 119.132797,104.773216 123.644226,105.405487 
	C128.940277,106.147705 129.539078,111.011124 131.660446,115.147903 
	C132.181366,115.581734 132.191101,115.759880 131.789154,115.955063 
	C130.125900,115.878967 128.874344,115.785828 128.912857,115.788689 
	C127.568970,113.326614 126.682053,111.701736 125.472885,109.914429 
	C121.274498,108.503700 117.398369,107.255409 113.522240,106.007118 
	C113.720535,105.840721 113.918839,105.674316 114.117134,105.507919 
	C112.571945,104.090538 111.026756,102.673157 109.481567,101.255783 
	C108.557335,102.504692 107.633095,103.753601 106.377167,105.013313 
	C104.701233,105.654922 103.357002,106.285728 101.711761,107.049423 
	C100.977707,107.233322 100.544685,107.284325 99.937363,107.031128 
	C97.840652,104.474327 95.918236,102.221733 93.995819,99.969147 
	C94.756516,99.980255 95.517212,99.991364 96.804459,100.403091 
	C98.460564,103.832947 100.490135,104.793526 103.980515,103.340958 
	C103.980515,102.049980 103.980515,100.605278 103.980515,99.160568 
	C106.697594,99.115181 109.414673,99.069786 112.579361,99.091736 
z"/>
<path fill="#000000" opacity="1.000000" stroke="none" 
	d="
M64.023933,106.811104 
	C63.781555,105.788773 63.539181,104.766434 63.174217,103.444778 
	C70.394432,102.435936 77.737228,101.726418 85.532440,101.492783 
	C85.873322,103.705132 85.761795,105.441597 85.219704,107.114845 
	C79.399094,107.361977 74.011765,107.775116 68.617294,107.916924 
	C67.096916,107.956879 65.555634,107.201622 64.023933,106.811104 
z"/>
<path fill="#8C0F35" opacity="1.000000" stroke="none" 
	d="
M93.606628,99.904861 
	C95.918236,102.221733 97.840652,104.474327 99.666763,107.241364 
	C98.122696,108.423515 96.674934,109.091232 95.155853,109.791840 
	C94.976479,103.492928 94.976479,103.492928 91.353096,102.043640 
	C88.843384,110.363167 86.333000,118.682495 83.553009,127.002441 
	C82.923920,127.003342 82.564438,127.003616 82.186554,126.616455 
	C82.097549,123.500740 82.026947,120.772476 81.996811,118.002991 
	C82.037277,117.961777 82.118118,117.879250 82.456940,117.908737 
	C83.524315,117.288391 84.252876,116.638550 84.955376,115.682022 
	C84.586105,114.897072 84.242889,114.418823 83.927437,113.654152 
	C83.968803,112.984581 83.982414,112.601418 84.362701,112.167000 
	C85.458725,110.753029 86.188072,109.390320 87.215851,107.740585 
	C87.621307,105.134933 87.728333,102.816299 87.835358,100.497665 
	C89.629379,100.278641 91.423409,100.059608 93.606628,99.904861 
z"/>
<path fill="#930C31" opacity="1.000000" stroke="none" 
	d="
M160.285950,72.747284 
	C157.864716,65.384239 154.224319,59.618927 146.337769,57.639900 
	C146.640015,57.138649 146.942261,56.637398 147.244507,56.136143 
	C150.083267,57.512657 153.537857,58.272518 155.647430,60.379215 
	C162.468750,67.191216 164.892883,75.897453 164.347641,85.536728 
	C163.055557,81.388672 161.763474,77.240608 160.285950,72.747284 
z"/>
<path fill="#87062E" opacity="1.000000" stroke="none" 
	d="
M152.111908,109.950073 
	C152.597275,109.652473 153.082642,109.354881 153.826660,108.929489 
	C155.080475,109.133125 156.075653,109.464554 157.806549,109.863785 
	C159.095154,109.878410 159.648010,109.825241 160.200882,109.772072 
	C160.200882,109.772072 160.078720,109.886894 160.065216,110.271729 
	C159.981857,111.222328 159.912003,111.788086 159.501846,112.230995 
	C153.675903,109.548721 153.656631,113.523315 153.078278,117.369423 
	C152.241089,119.789963 151.584900,121.887085 150.690002,123.817841 
	C150.245392,123.324013 150.039505,122.996552 149.775513,122.371292 
	C149.067337,120.874046 148.417252,119.674583 147.842224,118.150208 
	C147.942261,117.604401 147.967224,117.383499 148.385437,117.183868 
	C149.889755,114.786789 151.000839,112.368431 152.111908,109.950073 
z"/>
<path fill="#DC9B1E" opacity="1.000000" stroke="none" 
	d="
M71.931816,75.254562 
	C77.007645,73.679878 82.067421,72.326706 87.527206,71.069229 
	C85.902321,72.137062 83.954895,73.356438 81.833656,74.021194 
	C78.925652,74.932518 75.885765,75.423027 72.451477,76.050995 
	C72.000557,76.008102 71.905533,75.920143 71.905533,75.920143 
	C71.905533,75.920143 71.915756,75.476067 71.931816,75.254562 
z"/>
<path fill="#000000" opacity="1.000000" stroke="none" 
	d="
M103.583542,99.093140 
	C103.980515,100.605278 103.980515,102.049980 103.980515,103.340958 
	C100.490135,104.793526 98.460564,103.832947 97.179382,100.480087 
	C99.080704,99.779541 101.133644,99.402626 103.583542,99.093140 
z"/>
<path fill="#911236" opacity="1.000000" stroke="none" 
	d="
M87.500259,100.528252 
	C87.728333,102.816299 87.621307,105.134933 86.954124,107.682785 
	C86.146072,107.667358 85.898170,107.422714 85.650276,107.178062 
	C85.761795,105.441597 85.873322,103.705132 85.961418,101.532501 
	C86.347046,100.917168 86.756104,100.738007 87.500259,100.528252 
z"/>
<path fill="#BA5825" opacity="1.000000" stroke="none" 
	d="
M123.184952,61.811443 
	C125.116997,60.987946 127.201347,60.469215 129.671265,59.994728 
	C127.816986,60.731388 125.577126,61.423798 123.184952,61.811443 
z"/>
<path fill="#910B30" opacity="1.000000" stroke="none" 
	d="
M160.197479,109.460365 
	C159.648010,109.825241 159.095154,109.878410 158.127014,109.906166 
	C157.809280,109.458092 157.906815,109.035431 158.086914,108.298584 
	C158.844360,108.372490 159.519211,108.760574 160.197479,109.460365 
z"/>
<path fill="#8C0F35" opacity="1.000000" stroke="none" 
	d="
M45.898632,100.080933 
	C45.728218,100.451126 45.194607,100.751511 44.329891,101.033127 
	C44.005814,100.813576 44.012833,100.612785 44.047325,100.111305 
	C44.561676,99.877449 45.048553,99.944290 45.898632,100.080933 
z"/>
<path fill="#DC9B1E" opacity="1.000000" stroke="none" 
	d="
M72.044449,76.055695 
	C71.931015,76.096451 71.773697,76.089615 71.760956,76.001457 
	C71.905533,75.920143 72.000557,76.008102 72.044449,76.055695 
z"/>
<path fill="#8C1034" opacity="1.000000" stroke="none" 
	d="
M212.864136,95.334610 
	C211.447159,96.294731 210.009247,97.225693 208.619370,98.223557 
	C207.352798,99.132896 206.138306,100.114807 204.561890,100.718384 
	C205.226624,98.932434 206.230331,97.492821 207.851913,95.166977 
	C205.014053,95.781212 203.483215,96.112549 201.952377,96.443893 
	C206.664139,91.160805 215.916183,90.108231 221.087738,94.266914 
	C226.121353,98.314644 226.394348,105.507965 221.748230,111.670631 
	C218.411957,116.095894 213.960114,118.519798 208.687698,118.698189 
	C208.894241,117.871483 209.089798,117.088745 209.778625,116.310287 
	C211.837540,115.504349 213.403198,114.694130 215.095261,113.613052 
	C216.110107,112.549080 216.998520,111.755959 218.245041,110.917786 
	C219.056396,109.880310 219.509644,108.887894 219.998825,107.664841 
	C220.034744,107.434189 220.165924,106.986145 220.520416,106.889420 
	C222.494110,104.336578 223.142044,101.983078 220.017868,99.742226 
	C219.242050,98.689552 218.606979,97.907928 217.926910,96.777283 
	C216.209335,96.063705 214.536728,95.699158 212.864136,95.334610 
z"/>
<path fill="#8A0B32" opacity="1.000000" stroke="none" 
	d="
M214.421326,141.977661 
	C212.948639,140.968460 211.854919,139.981720 210.404297,138.973816 
	C209.277573,137.660767 208.507736,136.368896 207.390442,135.017303 
	C206.327042,133.686356 205.611084,132.415146 204.582245,131.073639 
	C204.609467,129.560684 204.949570,128.118042 205.497971,125.791977 
	C210.158783,133.900681 215.205307,140.733215 224.643188,142.945068 
	C223.913483,143.488861 222.718094,144.479156 221.758682,144.287598 
	C219.381744,143.812988 217.112686,142.798019 214.421326,141.977661 
z"/>
<path fill="#920F35" opacity="1.000000" stroke="none" 
	d="
M213.103058,95.589302 
	C214.536728,95.699158 216.209335,96.063705 217.589798,96.970322 
	C216.303391,101.761681 215.211899,105.992096 214.380554,110.273033 
	C214.162430,111.396217 214.750839,112.676025 214.968842,113.883911 
	C213.403198,114.694130 211.837540,115.504349 210.064270,116.024567 
	C211.348038,111.058884 213.074631,106.439255 214.209015,101.678505 
	C214.632004,99.903328 213.671585,97.798508 213.103058,95.589302 
z"/>
<path fill="#F0C305" opacity="1.000000" stroke="none" 
	d="
M201.696655,96.621056 
	C203.483215,96.112549 205.014053,95.781212 207.851913,95.166977 
	C206.230331,97.492821 205.226624,98.932434 204.200882,100.713867 
	C201.886230,104.146423 199.262833,106.357788 194.050217,104.496117 
	C196.846405,101.583717 199.143677,99.190964 201.696655,96.621056 
z"/>
<path fill="#8B0C33" opacity="1.000000" stroke="none" 
	d="
M217.580200,119.910461 
	C215.545456,121.217285 213.136398,122.566132 210.355225,123.960236 
	C210.066971,123.334991 209.974472,122.175438 210.262726,122.071472 
	C212.536102,121.251480 214.882187,120.632988 217.580200,119.910461 
z"/>
<path fill="#F7EFF1" opacity="1.000000" stroke="none" 
	d="
M147.767181,118.475121 
	C148.417252,119.674583 149.067337,120.874046 149.516022,122.613838 
	C146.724915,125.162979 144.135208,127.171791 140.903320,129.678726 
	C140.651855,132.552551 142.930786,133.336594 145.424896,131.342896 
	C147.740570,129.491821 149.130920,126.483170 150.928711,123.984200 
	C151.584900,121.887085 152.241089,119.789963 153.289886,117.392212 
	C153.682480,117.091591 154.103134,117.026688 154.198059,117.378723 
	C160.104614,120.461166 154.914536,124.479118 155.165680,127.860275 
	C155.693115,128.048203 156.220551,128.236145 156.747986,128.424072 
	C158.200211,124.942528 159.652435,121.460983 160.861847,118.561546 
	C165.105423,118.057922 169.016403,117.593765 172.951157,117.083382 
	C172.974915,117.037155 172.885040,117.089394 172.720200,117.487610 
	C173.237289,119.932793 173.919220,121.979752 174.876541,124.853302 
	C178.895416,118.771935 184.292328,117.070610 191.116226,118.607147 
	C191.255692,120.312454 191.414093,122.249275 191.572510,124.186096 
	C191.016678,126.528687 190.460861,128.871277 189.663727,131.831375 
	C188.966080,133.966599 188.509750,135.484314 188.053421,137.002029 
	C185.768890,140.642258 183.484375,144.282486 180.673218,148.321472 
	C174.554443,150.174072 173.408722,149.598770 173.139069,145.201508 
	C178.724350,144.779236 182.253830,141.050201 182.602600,135.980820 
	C179.439499,135.574677 176.315720,135.173569 173.191956,134.772476 
	C172.676773,133.959076 172.166473,134.456650 171.567261,134.612610 
	C169.908112,135.044434 168.211899,135.333847 166.530334,135.679565 
	C166.331665,133.958496 165.703384,132.150452 166.030289,130.535782 
	C166.585541,127.793205 167.742630,125.172462 168.793915,122.224976 
	C168.903000,121.365128 168.864975,120.780838 168.826935,120.196533 
	C168.346390,120.480049 167.865845,120.763565 167.096771,121.251099 
	C165.345398,124.999573 163.620483,128.463608 162.500473,132.113266 
	C161.559570,135.179260 160.420349,136.848450 156.962204,135.426270 
	C156.057648,135.054276 154.907776,135.281738 153.870895,135.227798 
	C152.236145,135.142776 150.601929,135.046616 148.966934,134.966873 
	C147.995911,134.919510 146.828201,134.525604 146.084213,134.919998 
	C141.575867,137.309875 137.817703,136.499847 134.817871,132.481567 
	C128.912979,137.040924 127.646828,137.175812 121.686829,134.232162 
	C121.231247,134.007156 120.522308,134.295090 119.941864,134.369461 
	C119.952599,134.394318 119.918106,134.435394 120.322968,134.377136 
	C120.472763,133.358948 120.217705,132.399017 119.980354,131.468475 
	C119.998070,131.497894 120.022194,131.562180 120.125206,131.167480 
	C121.761169,122.045128 125.168655,118.599991 132.975159,118.408707 
	C133.761398,120.436928 134.305038,122.186729 134.572540,124.132195 
	C132.521759,125.435257 130.632660,126.400490 129.014862,127.702766 
	C128.026550,128.498337 127.455276,129.812042 126.696693,130.893036 
	C128.116562,131.120865 130.241669,132.046173 130.829895,131.451447 
	C132.971420,129.286194 134.599106,126.612717 136.665161,123.918839 
	C139.563690,119.959747 142.801331,117.424179 147.767181,118.475121 
M184.367615,127.816658 
	C185.576767,125.524597 189.051010,123.707253 185.785294,120.061394 
	C181.687866,122.807251 179.392838,126.252342 179.962875,131.674561 
	C181.272369,130.592896 182.581848,129.511246 184.367615,127.816658 
M171.968796,128.290741 
	C172.963638,127.448662 173.958481,126.606575 174.953323,125.764488 
	C174.542023,125.374649 174.130722,124.984802 173.719437,124.594963 
	C173.161331,125.542564 172.603226,126.490166 171.968796,128.290741 
M183.006805,134.550323 
	C183.228317,134.629135 183.449844,134.707947 183.671341,134.786758 
	C183.602005,134.564072 183.532669,134.341385 183.006805,134.550323 
z"/>
<path fill="#8B0D31" opacity="1.000000" stroke="none" 
	d="
M168.646790,122.500519 
	C167.742630,125.172462 166.585541,127.793205 166.030289,130.535782 
	C165.703384,132.150452 166.331665,133.958496 166.530334,135.679565 
	C168.211899,135.333847 169.908112,135.044434 171.567261,134.612610 
	C172.166473,134.456650 172.676773,133.959076 173.191956,134.772476 
	C176.315720,135.173569 179.439499,135.574677 182.602600,135.980820 
	C182.253830,141.050201 178.724350,144.779236 173.139069,145.201508 
	C173.408722,149.598770 174.554443,150.174072 180.490509,148.581757 
	C180.558762,153.871872 176.092422,152.380722 173.817322,151.645294 
	C171.810730,150.996689 170.493149,147.922119 169.208160,145.722046 
	C169.053955,145.458054 170.883194,143.744827 172.016052,143.087646 
	C173.735443,142.090195 175.650238,141.429550 177.482010,140.625824 
	C177.393051,140.055496 177.304092,139.485168 177.215134,138.914825 
	C171.700562,138.698273 166.187134,138.445511 160.671173,138.273560 
	C152.118973,138.006958 143.412170,136.732452 135.065399,137.932861 
	C129.465942,138.738159 123.600182,137.528519 117.998779,140.277802 
	C114.903023,141.797272 110.525696,141.044907 106.764961,140.775040 
	C102.989815,140.504135 99.277466,139.454391 95.511162,138.939194 
	C91.073669,138.332184 86.607780,137.932800 82.415840,137.472137 
	C80.247223,141.242203 78.509979,144.821503 76.256645,148.039429 
	C73.382095,152.144485 67.504623,153.375610 63.926094,150.833069 
	C63.380402,150.445374 63.566002,149.028412 64.041176,148.190048 
	C68.884163,150.994446 72.368179,149.234406 74.255219,145.578522 
	C77.336235,139.609497 79.597717,133.217468 82.204956,127.003899 
	C82.564438,127.003616 82.923920,127.003342 83.568695,127.386932 
	C83.679543,128.583725 83.186661,129.491028 83.394058,130.190781 
	C83.892632,131.873047 84.719536,133.458008 85.413986,135.082214 
	C86.174042,133.816071 86.965851,132.567749 87.687988,131.280350 
	C89.601646,127.868790 91.485191,124.440346 93.657028,121.399139 
	C94.142479,122.013206 94.351616,122.246758 94.448929,122.831696 
	C93.394005,126.173225 92.284882,129.123734 91.558655,132.165649 
	C90.941620,134.750275 92.754593,137.440109 94.775284,135.769608 
	C98.871017,132.383652 102.173531,138.382767 105.758202,135.814133 
	C105.861366,135.740204 106.613312,136.604950 107.084587,137.006378 
	C111.963387,141.162018 116.475014,140.225327 119.931137,134.344604 
	C120.522308,134.295090 121.231247,134.007156 121.686829,134.232162 
	C127.646828,137.175812 128.912979,137.040924 134.817871,132.481567 
	C137.817703,136.499847 141.575867,137.309875 146.084213,134.919998 
	C146.828201,134.525604 147.995911,134.919510 148.966934,134.966873 
	C150.601929,135.046616 152.236145,135.142776 153.870895,135.227798 
	C154.907776,135.281738 156.057648,135.054276 156.962204,135.426270 
	C160.420349,136.848450 161.559570,135.179260 162.500473,132.113266 
	C163.620483,128.463608 165.345398,124.999573 167.392426,121.631569 
	C168.200012,122.038857 168.423401,122.269691 168.646790,122.500519 
z"/>
<path fill="#F9F2F4" opacity="1.000000" stroke="none" 
	d="
M82.186554,126.616455 
	C79.597717,133.217468 77.336235,139.609497 74.255219,145.578522 
	C72.368179,149.234406 68.884163,150.994446 64.367149,148.135162 
	C64.630241,147.004486 64.979927,145.752319 65.804733,145.115891 
	C67.540291,143.776703 69.525063,142.760498 71.848145,140.938446 
	C72.887978,138.768295 73.487236,137.271439 73.859787,136.340836 
	C70.245316,135.663757 67.262405,135.104980 63.336979,134.369659 
	C58.339436,137.363739 57.591496,137.201538 56.699104,131.691467 
	C56.854961,130.916901 56.875267,130.459961 57.043076,129.707672 
	C57.319939,128.993912 57.449291,128.575516 57.736732,127.919449 
	C58.183685,126.787460 58.472542,125.893120 58.907909,124.714211 
	C59.122936,124.010445 59.191452,123.591255 59.244755,123.152359 
	C59.229538,123.132652 59.256035,123.187576 59.256035,123.187576 
	C59.903763,121.487076 60.551495,119.786583 61.810776,118.069412 
	C62.602177,118.040665 62.782024,118.028580 62.961876,118.016502 
	C63.859627,120.214272 64.757378,122.412048 65.739578,124.816551 
	C67.549500,123.131508 69.530602,121.287102 72.127647,119.152863 
	C75.814514,118.590080 78.885422,118.317146 81.956337,118.044205 
	C82.026947,120.772476 82.097549,123.500740 82.186554,126.616455 
M77.839760,120.788010 
	C73.045181,121.552017 69.915405,126.332664 71.234947,132.142166 
	C74.509453,128.701447 78.502754,126.570938 77.839760,120.788010 
M63.926220,125.682419 
	C63.766357,126.329651 63.606491,126.976883 63.446629,127.624115 
	C63.872387,127.678154 64.298149,127.732201 64.723907,127.786247 
	C64.772797,126.988785 64.821686,126.191330 63.926220,125.682419 
M74.024414,134.557693 
	C74.256096,134.640839 74.487778,134.723969 74.719467,134.807114 
	C74.649269,134.580307 74.579079,134.353516 74.024414,134.557693 
z"/>
<path fill="#F4C805" opacity="1.000000" stroke="none" 
	d="
M168.983627,113.895233 
	C168.581116,111.754517 168.178619,109.613800 167.651138,106.808357 
	C175.024399,108.661720 181.588989,110.311806 188.566620,111.894104 
	C193.220871,111.826317 197.462051,111.826317 201.692108,111.826317 
	C202.192123,116.494911 198.993607,115.501945 196.395569,116.009811 
	C194.612686,116.073105 193.223709,116.016121 190.965057,115.907944 
	C184.358582,116.267624 178.621811,116.678513 172.885040,117.089394 
	C172.885040,117.089394 172.974915,117.037155 172.997467,116.749298 
	C172.089844,115.946419 171.159698,115.431396 170.089157,114.676064 
	C169.627060,114.255585 169.305344,114.075409 168.983627,113.895233 
z"/>
<path fill="#8B0D31" opacity="1.000000" stroke="none" 
	d="
M56.563545,132.009079 
	C57.591496,137.201538 58.339436,137.363739 63.336979,134.369659 
	C67.262405,135.104980 70.245316,135.663757 73.859787,136.340836 
	C73.487236,137.271439 72.887978,138.768295 71.984383,140.629059 
	C67.597443,137.357544 62.771511,138.673965 58.156509,139.163086 
	C57.319946,139.251770 56.375717,140.736206 55.935425,141.769775 
	C52.473648,149.896149 37.554546,152.248611 31.708588,147.573898 
	C31.496191,147.404053 31.699436,146.714432 31.972374,146.069733 
	C36.171444,146.127960 40.243118,147.154343 44.016251,146.488632 
	C53.753658,144.770630 55.725208,138.476532 49.842155,129.799927 
	C50.404633,129.246307 50.710655,129.114838 51.306892,129.134125 
	C53.252586,130.192963 54.908066,131.101013 56.563545,132.009079 
z"/>
<path fill="#87062E" opacity="1.000000" stroke="none" 
	d="
M172.720200,117.487610 
	C178.621811,116.678513 184.358582,116.267624 190.549530,115.946449 
	C191.414627,118.598114 191.825531,121.160057 191.904465,123.954056 
	C191.414093,122.249275 191.255692,120.312454 191.116226,118.607147 
	C184.292328,117.070610 178.895416,118.771935 174.876541,124.853302 
	C173.919220,121.979752 173.237289,119.932793 172.720200,117.487610 
z"/>
<path fill="#8B0D31" opacity="1.000000" stroke="none" 
	d="
M32.642918,123.969368 
	C37.438484,127.606728 42.040157,131.530273 46.539410,135.567963 
	C48.426762,137.261673 51.392094,139.123077 46.509960,141.353241 
	C45.000385,139.555984 44.161716,137.420380 42.674397,135.933746 
	C40.011230,133.271805 36.821796,131.138336 34.137814,128.494202 
	C33.146458,127.517570 32.960785,125.723114 32.642918,123.969368 
z"/>
<path fill="#8B0D31" opacity="1.000000" stroke="none" 
	d="
M30.603853,115.082886 
	C31.445358,117.460403 31.921383,119.922173 32.509689,122.708366 
	C29.265593,122.674416 28.232708,119.265999 30.603853,115.082886 
z"/>
<path fill="#8B0D31" opacity="1.000000" stroke="none" 
	d="
M38.954491,141.090698 
	C37.138504,140.785706 35.297657,140.105194 33.246552,139.122101 
	C35.336781,136.527969 35.860176,136.696320 38.954491,141.090698 
z"/>
<path fill="#8C0F35" opacity="1.000000" stroke="none" 
	d="
M188.383453,136.939484 
	C188.509750,135.484314 188.966080,133.966599 189.659271,132.204865 
	C189.501907,133.599533 189.107697,135.238235 188.383453,136.939484 
z"/>
<path fill="#8B0D31" opacity="1.000000" stroke="none" 
	d="
M29.251511,141.104233 
	C29.698940,141.703735 29.847340,142.408875 30.040031,143.471863 
	C29.483534,143.910385 28.882746,143.991013 28.281956,144.071655 
	C28.505465,143.117722 28.728971,142.163788 29.251511,141.104233 
z"/>
<path fill="#8B0D31" opacity="1.000000" stroke="none" 
	d="
M43.951107,141.537354 
	C43.554077,141.863907 43.108032,141.917435 42.330929,141.896698 
	C42.317204,141.354294 42.634529,140.886154 42.951859,140.418030 
	C43.268600,140.700150 43.585342,140.982254 43.951107,141.537354 
z"/>
<path fill="#8B0C33" opacity="1.000000" stroke="none" 
	d="
M274.400116,115.887772 
	C276.140625,113.437279 277.702820,111.359512 279.634857,108.789856 
	C281.583252,113.777878 279.497192,117.561584 273.687561,120.705772 
	C273.901764,118.923409 274.061768,117.591949 274.400116,115.887772 
z"/>
<path fill="#8C0F36" opacity="1.000000" stroke="none" 
	d="
M236.243469,112.213730 
	C237.414917,111.164017 238.348419,110.405846 239.281921,109.647675 
	C239.647797,109.914970 240.013657,110.182274 240.379532,110.449570 
	C238.612732,114.105347 236.845932,117.761124 235.079132,121.416893 
	C234.221069,121.028404 233.363007,120.639908 232.504944,120.251419 
	C233.671814,117.669373 234.838684,115.087318 236.243469,112.213730 
z"/>
<path fill="#8C0F36" opacity="1.000000" stroke="none" 
	d="
M262.889221,109.886871 
	C262.991791,109.608490 263.198944,109.434517 263.406128,109.260551 
	C263.468933,109.506325 263.531708,109.752106 263.399170,110.098526 
	C263.203888,110.199173 262.993805,109.991287 262.889221,109.886871 
z"/>
<path fill="#8E143A" opacity="1.000000" stroke="none" 
	d="
M254.701157,125.098297 
	C254.711014,125.339836 254.431915,125.561920 253.883820,125.823212 
	C253.880615,125.601227 254.146408,125.340042 254.701157,125.098297 
z"/>
<path fill="#951330" opacity="1.000000" stroke="none" 
	d="
M45.304256,114.384201 
	C44.024963,115.878906 42.737507,117.365379 41.102787,119.252800 
	C38.692158,117.998085 37.876652,115.737007 40.651604,112.916832 
	C44.102264,109.409920 47.662354,105.891464 53.695717,107.875732 
	C51.600883,110.131905 49.157101,112.235161 46.343880,113.992493 
	C45.817673,113.486298 45.660904,113.326027 45.504135,113.165749 
	C45.442291,113.568146 45.380447,113.970551 45.318600,114.372948 
	C45.318600,114.372948 45.296093,114.375969 45.304256,114.384201 
z"/>
<path fill="#8B0D31" opacity="1.000000" stroke="none" 
	d="
M49.607536,129.469666 
	C47.655075,128.412079 46.193699,127.262634 44.590370,125.922012 
	C44.508495,125.426109 44.568577,125.121376 45.163223,124.440536 
	C47.470749,125.704071 49.243713,127.343712 51.016678,128.983353 
	C50.710655,129.114838 50.404633,129.246307 49.607536,129.469666 
z"/>
<path fill="#8B0D31" opacity="1.000000" stroke="none" 
	d="
M45.419743,114.400002 
	C45.380447,113.970551 45.442291,113.568146 45.504135,113.165749 
	C45.660904,113.326027 45.817673,113.486298 45.927525,113.942551 
	C45.880608,114.238533 45.520885,114.427055 45.419743,114.400002 
z"/>
<path fill="#F8D203" opacity="1.000000" stroke="none" 
	d="
M152.060455,109.587524 
	C151.000839,112.368431 149.889755,114.786789 148.092682,116.993515 
	C146.100006,116.546532 144.775085,116.041985 143.490173,116.128876 
	C140.299545,116.344658 137.127151,116.830338 133.727936,117.048958 
	C133.072586,116.572876 132.636703,116.255447 132.200836,115.938019 
	C132.191101,115.759880 132.181366,115.581734 132.038528,115.171371 
	C131.581024,105.414009 136.360764,101.830582 142.676743,101.970833 
	C147.659134,102.081474 150.356491,104.932396 152.060455,109.587524 
z"/>
<path fill="#F6CF03" opacity="1.000000" stroke="none" 
	d="
M85.219704,107.114845 
	C85.898170,107.422714 86.146072,107.667358 86.655693,107.969810 
	C86.188072,109.390320 85.458725,110.753029 83.908081,112.075546 
	C79.426964,112.031982 75.767151,112.028618 72.107918,111.985748 
	C72.108505,111.946243 72.035683,111.915565 71.927994,111.708488 
	C71.599159,111.201950 71.320244,111.131721 70.983566,111.290726 
	C68.983330,110.757378 66.895737,110.422150 65.024231,109.596870 
	C64.233505,109.248192 63.897728,107.867828 63.689545,106.883751 
	C65.555634,107.201622 67.096916,107.956879 68.617294,107.916924 
	C74.011765,107.775116 79.399094,107.361977 85.219704,107.114845 
z"/>
<path fill="#951330" opacity="1.000000" stroke="none" 
	d="
M51.306892,129.134125 
	C49.243713,127.343712 47.470749,125.704071 45.363068,124.019684 
	C45.202705,123.527908 45.443073,122.675766 45.541958,122.691879 
	C51.021938,123.584793 54.764275,120.644135 58.600075,117.008064 
	C58.983120,116.978104 59.069386,117.045219 59.069386,117.045219 
	C59.084499,118.802696 59.099613,120.560181 59.185379,122.752617 
	C59.256035,123.187576 59.229538,123.132652 58.943039,123.132118 
	C58.266663,123.368233 57.876785,123.604874 57.486904,123.841522 
	C57.911736,124.227280 58.336567,124.613029 58.761398,124.998779 
	C58.472542,125.893120 58.183685,126.787460 57.410362,127.904480 
	C56.443932,128.423782 55.961964,128.720413 55.479996,129.017044 
	C55.951855,129.345703 56.423714,129.674362 56.895569,130.003021 
	C56.875267,130.459961 56.854961,130.916901 56.699104,131.691467 
	C54.908066,131.101013 53.252586,130.192963 51.306892,129.134125 
z"/>
<path fill="#E9D0D8" opacity="1.000000" stroke="none" 
	d="
M62.991936,117.667252 
	C62.782024,118.028580 62.602177,118.040665 62.157242,117.999458 
	C62.583797,115.847267 63.096237,113.652046 64.126602,111.735222 
	C64.319878,111.375671 66.583267,112.128883 68.759781,112.527725 
	C66.198883,114.665733 64.610435,115.991859 62.991936,117.667252 
z"/>
<path fill="#8C0F35" opacity="1.000000" stroke="none" 
	d="
M81.996811,118.002991 
	C78.885422,118.317146 75.814514,118.590080 72.371124,118.901474 
	C71.998642,118.939926 71.999245,118.468437 71.998352,117.980637 
	C71.994225,117.324821 71.990990,117.156792 72.108963,116.719925 
	C72.502922,115.929459 72.775665,115.407845 73.375290,114.929306 
	C74.137184,115.032417 74.572205,115.092445 75.005142,115.361374 
	C75.003067,115.570282 75.001511,115.988098 75.213821,116.246651 
	C76.624031,116.344765 77.821938,116.184326 79.392014,116.016846 
	C80.508644,116.007141 81.253098,116.004486 82.004349,116.315910 
	C82.046791,117.046410 82.082458,117.462830 82.118118,117.879250 
	C82.118118,117.879250 82.037277,117.961777 81.996811,118.002991 
z"/>
<path fill="#911236" opacity="1.000000" stroke="none" 
	d="
M73.048401,114.886223 
	C72.775665,115.407845 72.502922,115.929459 71.777100,116.722412 
	C70.881149,116.990692 70.438293,116.987640 69.995438,116.984589 
	C70.327782,115.570396 70.660133,114.156197 71.256439,112.359619 
	C71.692169,111.956680 71.863930,111.936127 72.035683,111.915565 
	C72.035683,111.915565 72.108505,111.946243 72.170471,112.285988 
	C72.504425,113.379227 72.776413,114.132729 73.048401,114.886223 
z"/>
<path fill="#95112D" opacity="1.000000" stroke="none" 
	d="
M69.862411,117.186043 
	C70.438293,116.987640 70.881149,116.990692 71.655876,116.991257 
	C71.990990,117.156792 71.994225,117.324821 71.998428,117.744888 
	C71.242722,117.793793 70.486046,117.590645 69.862411,117.186043 
z"/>
<path fill="#951330" opacity="1.000000" stroke="none" 
	d="
M58.942825,116.941193 
	C59.067505,116.509148 59.232483,116.114014 59.397453,115.718880 
	C59.410671,116.068657 59.423885,116.418442 59.253242,116.906723 
	C59.069386,117.045219 58.983120,116.978104 58.942825,116.941193 
z"/>
<path fill="#95112D" opacity="1.000000" stroke="none" 
	d="
M71.927994,111.708488 
	C71.863930,111.936127 71.692169,111.956680 71.261398,111.992401 
	C71.002388,112.007561 70.990295,111.649002 70.986931,111.469864 
	C71.320244,111.131721 71.599159,111.201950 71.927994,111.708488 
z"/>
<path fill="#910B30" opacity="1.000000" stroke="none" 
	d="
M168.590973,113.935043 
	C169.305344,114.075409 169.627060,114.255585 169.715363,114.730911 
	C165.979889,116.929367 162.656921,117.299583 159.791412,113.635323 
	C159.819168,113.036842 159.830658,112.695343 159.842133,112.353844 
	C159.912003,111.788086 159.981857,111.222328 160.140564,110.234985 
	C161.506042,111.210770 162.782669,112.608147 164.489624,114.476532 
	C165.089600,114.395370 166.643967,114.185112 168.590973,113.935043 
z"/>
<path fill="#F8F0F2" opacity="1.000000" stroke="none" 
	d="
M119.941864,134.369476 
	C116.475014,140.225327 111.963387,141.162018 107.084587,137.006378 
	C106.613312,136.604950 105.861366,135.740204 105.758202,135.814133 
	C102.173531,138.382767 98.871017,132.383652 94.775284,135.769608 
	C92.754593,137.440109 90.941620,134.750275 91.558655,132.165649 
	C92.284882,129.123734 93.394005,126.173225 94.609451,122.566383 
	C94.855988,121.366219 94.830170,120.782753 94.804352,120.199280 
	C94.329803,120.472397 93.855263,120.745506 93.380707,121.018623 
	C91.485191,124.440346 89.601646,127.868790 87.687988,131.280350 
	C86.965851,132.567749 86.174042,133.816071 85.413986,135.082214 
	C84.719536,133.458008 83.892632,131.873047 83.394058,130.190781 
	C83.186661,129.491028 83.679543,128.583725 83.838303,127.386307 
	C86.333000,118.682495 88.843384,110.363167 91.353096,102.043640 
	C94.976479,103.492928 94.976479,103.492928 95.155853,109.791840 
	C96.674934,109.091232 98.122696,108.423515 99.841057,107.545570 
	C100.544685,107.284325 100.977707,107.233322 102.095764,107.076180 
	C104.090141,106.314194 105.399498,105.658348 106.708862,105.002502 
	C107.633095,103.753601 108.557335,102.504692 109.481567,101.255783 
	C111.026756,102.673157 112.571945,104.090538 114.117134,105.507919 
	C113.918839,105.674316 113.720535,105.840721 113.522240,106.007118 
	C117.398369,107.255409 121.274498,108.503700 125.539917,110.318848 
	C126.024147,113.619926 125.037582,112.876221 122.957993,112.456322 
	C119.420479,111.742058 113.467201,110.761574 112.381561,112.417984 
	C109.066856,117.475365 107.587875,123.735924 105.394600,129.528305 
	C105.873276,129.746887 106.351959,129.965454 106.830635,130.184021 
	C108.231163,127.831558 109.754387,125.542168 111.003716,123.111969 
	C112.919785,119.384827 115.398994,116.981178 120.003059,118.395927 
	C120.045815,118.389694 119.977875,118.452827 119.661179,118.656769 
	C118.840446,119.850418 118.511742,120.997345 117.795151,121.796440 
	C116.391228,123.362000 114.771088,124.733673 113.081818,126.336052 
	C115.900612,128.458618 117.961403,130.010391 120.022194,131.562180 
	C120.022194,131.562180 119.998070,131.497894 120.073929,131.964020 
	C120.072563,133.098572 119.995331,133.766983 119.918106,134.435394 
	C119.918106,134.435394 119.952599,134.394318 119.941864,134.369476 
M104.990829,114.076332 
	C102.920235,112.053612 100.985733,112.651115 97.131203,116.561592 
	C102.637245,120.459656 98.213570,124.641899 97.402252,128.772293 
	C99.957870,127.806664 99.957870,127.806664 104.990829,114.076332 
z"/>
<path fill="#8E1435" opacity="1.000000" stroke="none" 
	d="
M119.960304,118.402161 
	C115.398994,116.981178 112.919785,119.384827 111.003716,123.111969 
	C109.754387,125.542168 108.231163,127.831558 106.830635,130.184021 
	C106.351959,129.965454 105.873276,129.746887 105.394600,129.528305 
	C107.587875,123.735924 109.066856,117.475365 112.381561,112.417984 
	C113.467201,110.761574 119.420479,111.742058 122.957993,112.456322 
	C125.037582,112.876221 126.024147,113.619926 125.862175,110.481277 
	C126.682053,111.701736 127.568970,113.326614 128.912857,115.788689 
	C128.874344,115.785828 130.125900,115.878967 131.789154,115.955063 
	C132.636703,116.255447 133.072586,116.572876 133.568268,117.253212 
	C133.329575,117.787514 133.031067,117.958908 132.732559,118.130295 
	C125.168655,118.599991 121.761169,122.045128 120.125206,131.167480 
	C117.961403,130.010391 115.900612,128.458618 113.081818,126.336052 
	C114.771088,124.733673 116.391228,123.362000 117.795151,121.796440 
	C118.511742,120.997345 118.840446,119.850418 120.042099,118.460136 
	C122.400414,117.975739 124.061111,117.891907 127.056847,117.740685 
	C116.633186,113.060051 114.768364,112.982384 113.827942,115.619301 
	C115.924423,116.570686 117.942360,117.486420 119.960304,118.402161 
z"/>
<path fill="#8C0F35" opacity="1.000000" stroke="none" 
	d="
M106.377159,105.013306 
	C105.399498,105.658348 104.090141,106.314194 102.396782,106.943283 
	C103.357002,106.285728 104.701233,105.654922 106.377159,105.013306 
z"/>
<path fill="#000000" opacity="1.000000" stroke="none" 
	d="
M73.375290,114.929306 
	C72.776413,114.132729 72.504425,113.379227 72.169884,112.325493 
	C75.767151,112.028618 79.426964,112.031982 83.541412,112.126801 
	C83.982414,112.601418 83.968803,112.984581 83.516754,113.679482 
	C80.387955,114.378311 77.697586,114.765396 75.007217,115.152473 
	C74.572205,115.092445 74.137184,115.032417 73.375290,114.929306 
z"/>
<path fill="#911236" opacity="1.000000" stroke="none" 
	d="
M75.005142,115.361374 
	C77.697586,114.765396 80.387955,114.378311 83.488998,113.965897 
	C84.242889,114.418823 84.586105,114.897072 84.582825,115.685104 
	C83.490074,115.997200 82.743820,115.999519 81.997559,116.001831 
	C81.253098,116.004486 80.508644,116.007141 78.989799,116.006729 
	C77.144112,115.998474 76.072815,115.993286 75.001511,115.988098 
	C75.001511,115.988098 75.003067,115.570282 75.005142,115.361374 
z"/>
<path fill="#95112D" opacity="1.000000" stroke="none" 
	d="
M82.004349,116.315910 
	C82.743820,115.999519 83.490074,115.997200 84.608887,115.991806 
	C84.252876,116.638550 83.524315,117.288391 82.456940,117.908737 
	C82.082458,117.462830 82.046791,117.046410 82.004349,116.315910 
z"/>
<path fill="#952039" opacity="1.000000" stroke="none" 
	d="
M132.975159,118.408714 
	C133.031067,117.958908 133.329575,117.787514 133.787750,117.411865 
	C137.127151,116.830338 140.299545,116.344658 143.490173,116.128876 
	C144.775085,116.041985 146.100006,116.546532 147.699463,116.972252 
	C147.967224,117.383499 147.942261,117.604401 147.842224,118.150208 
	C142.801331,117.424179 139.563690,119.959747 136.272736,123.865616 
	C135.373322,123.995087 135.110992,123.965805 134.848679,123.936531 
	C134.305038,122.186729 133.761398,120.436928 132.975159,118.408714 
z"/>
<path fill="#8F173C" opacity="1.000000" stroke="none" 
	d="
M150.689987,123.817841 
	C149.130920,126.483170 147.740570,129.491821 145.424896,131.342896 
	C142.930786,133.336594 140.651855,132.552551 140.903320,129.678726 
	C144.135208,127.171791 146.724915,125.162979 149.574127,122.911621 
	C150.039505,122.996552 150.245392,123.324013 150.689987,123.817841 
z"/>
<path fill="#E8CFD7" opacity="1.000000" stroke="none" 
	d="
M159.501846,112.230995 
	C159.830658,112.695343 159.819168,113.036842 159.483276,113.753891 
	C157.473618,115.095192 155.788376,116.060936 154.103134,117.026688 
	C154.103134,117.026688 153.682480,117.091591 153.470886,117.068802 
	C153.656631,113.523315 153.675903,109.548721 159.501846,112.230995 
z"/>
<path fill="#000000" opacity="1.000000" stroke="none" 
	d="
M215.095261,113.613052 
	C214.750839,112.676025 214.162430,111.396217 214.380554,110.273033 
	C215.211899,105.992096 216.303391,101.761681 217.634781,97.319351 
	C218.606979,97.907928 219.242050,98.689552 219.985641,100.107834 
	C220.118073,102.825043 220.141998,104.905594 220.165924,106.986145 
	C220.165924,106.986145 220.034744,107.434189 219.716034,107.818512 
	C218.893860,109.122841 218.390396,110.042847 217.886948,110.962845 
	C216.998520,111.755959 216.110107,112.549080 215.095261,113.613052 
z"/>
<path fill="#920F35" opacity="1.000000" stroke="none" 
	d="
M220.520416,106.889420 
	C220.141998,104.905594 220.118073,102.825043 220.126373,100.378891 
	C223.142044,101.983078 222.494110,104.336578 220.520416,106.889420 
z"/>
<path fill="#920F35" opacity="1.000000" stroke="none" 
	d="
M218.245041,110.917786 
	C218.390396,110.042847 218.893860,109.122841 219.680115,108.049164 
	C219.509644,108.887894 219.056396,109.880310 218.245041,110.917786 
z"/>
<path fill="#87062E" opacity="1.000000" stroke="none" 
	d="
M154.198059,117.378723 
	C155.788376,116.060936 157.473618,115.095192 159.467010,114.010880 
	C162.656921,117.299583 165.979889,116.929367 169.855743,114.971222 
	C171.159698,115.431396 172.089844,115.946419 172.973694,116.795525 
	C169.016403,117.593765 165.105423,118.057922 160.861847,118.561546 
	C159.652435,121.460983 158.200211,124.942528 156.747986,128.424072 
	C156.220551,128.236145 155.693115,128.048203 155.165680,127.860275 
	C154.914536,124.479118 160.104614,120.461166 154.198059,117.378723 
z"/>
<path fill="#8C1036" opacity="1.000000" stroke="none" 
	d="
M184.129486,128.123123 
	C182.581848,129.511246 181.272369,130.592896 179.962875,131.674561 
	C179.392838,126.252342 181.687866,122.807251 185.785294,120.061394 
	C189.051010,123.707253 185.576767,125.524597 184.129486,128.123123 
z"/>
<path fill="#8C1137" opacity="1.000000" stroke="none" 
	d="
M134.572540,124.132195 
	C135.110992,123.965805 135.373322,123.995087 136.028076,124.077599 
	C134.599106,126.612717 132.971420,129.286194 130.829895,131.451447 
	C130.241669,132.046173 128.116562,131.120865 126.696693,130.893036 
	C127.455276,129.812042 128.026550,128.498337 129.014862,127.702766 
	C130.632660,126.400490 132.521759,125.435257 134.572540,124.132195 
z"/>
<path fill="#8A0B32" opacity="1.000000" stroke="none" 
	d="
M172.006958,127.864258 
	C172.603226,126.490166 173.161331,125.542564 173.719437,124.594963 
	C174.130722,124.984802 174.542023,125.374649 174.953323,125.764488 
	C173.958481,126.606575 172.963638,127.448662 172.006958,127.864258 
z"/>
<path fill="#8C0F35" opacity="1.000000" stroke="none" 
	d="
M120.322968,134.377136 
	C119.995331,133.766983 120.072563,133.098572 120.056213,131.934616 
	C120.217705,132.399017 120.472763,133.358948 120.322968,134.377136 
z"/>
<path fill="#8B0D31" opacity="1.000000" stroke="none" 
	d="
M167.680969,121.427551 
	C167.865845,120.763565 168.346390,120.480049 168.826935,120.196533 
	C168.864975,120.780838 168.903000,121.365128 168.793915,122.224976 
	C168.423401,122.269691 168.200012,122.038857 167.680969,121.427551 
z"/>
<path fill="#8C0F35" opacity="1.000000" stroke="none" 
	d="
M183.235062,134.334503 
	C183.532669,134.341385 183.602005,134.564072 183.671356,134.786758 
	C183.449844,134.707947 183.228317,134.629135 183.235062,134.334503 
z"/>
<path fill="#90193E" opacity="1.000000" stroke="none" 
	d="
M78.050003,121.060791 
	C78.502754,126.570938 74.509453,128.701447 71.234947,132.142166 
	C69.915405,126.332664 73.045181,121.552017 78.050003,121.060791 
z"/>
<path fill="#8B0D31" opacity="1.000000" stroke="none" 
	d="
M57.043076,129.707672 
	C56.423714,129.674362 55.951855,129.345703 55.479996,129.017044 
	C55.961964,128.720413 56.443932,128.423782 57.252270,128.142136 
	C57.449291,128.575516 57.319939,128.993912 57.043076,129.707672 
z"/>
<path fill="#8B0D31" opacity="1.000000" stroke="none" 
	d="
M64.398399,125.538147 
	C64.821686,126.191330 64.772797,126.988785 64.723907,127.786247 
	C64.298149,127.732201 63.872387,127.678154 63.446625,127.624115 
	C63.606491,126.976883 63.766357,126.329651 64.398399,125.538147 
z"/>
<path fill="#8B0D31" opacity="1.000000" stroke="none" 
	d="
M58.907906,124.714211 
	C58.336567,124.613029 57.911736,124.227280 57.486904,123.841522 
	C57.876785,123.604874 58.266663,123.368233 58.958260,123.151825 
	C59.191452,123.591255 59.122936,124.010445 58.907906,124.714211 
z"/>
<path fill="#8C0F35" opacity="1.000000" stroke="none" 
	d="
M74.266647,134.342194 
	C74.579079,134.353516 74.649269,134.580307 74.719467,134.807114 
	C74.487778,134.723969 74.256096,134.640839 74.266647,134.342194 
z"/>
<path fill="#95112D" opacity="1.000000" stroke="none" 
	d="
M75.213821,116.246651 
	C76.072815,115.993286 77.144112,115.998474 78.617630,116.013779 
	C77.821938,116.184326 76.624031,116.344765 75.213821,116.246651 
z"/>
<path fill="#8F173B" opacity="1.000000" stroke="none" 
	d="
M104.891953,114.486069 
	C99.957870,127.806664 99.957870,127.806664 97.402252,128.772293 
	C98.213570,124.641899 102.637245,120.459656 97.131203,116.561592 
	C100.985733,112.651115 102.920235,112.053612 104.891953,114.486069 
z"/>
<path fill="#8B0D31" opacity="1.000000" stroke="none" 
	d="
M93.657028,121.399139 
	C93.855263,120.745506 94.329803,120.472397 94.804352,120.199280 
	C94.830170,120.782753 94.855988,121.366219 94.721283,122.214996 
	C94.351616,122.246758 94.142479,122.013206 93.657028,121.399139 
z"/>
<path fill="#E7B308" opacity="1.000000" stroke="none" 
	d="
M120.003059,118.395927 
	C117.942360,117.486420 115.924423,116.570686 113.827942,115.619301 
	C114.768364,112.982384 116.633186,113.060051 127.056847,117.740685 
	C124.061111,117.891907 122.400414,117.975739 120.358795,118.256195 
	C119.977875,118.452827 120.045815,118.389694 120.003059,118.395927 
z"/>
</svg>